<?xml version="1.0" encoding="UTF-8" standalone="no"?>
<!DOCTYPE svg PUBLIC "-//W3C//DTD SVG 1.1//EN"
 "http://www.w3.org/Graphics/SVG/1.1/DTD/svg11.dtd">
<!-- Generated by graphviz version 2.49.3 (0)
 -->
<!-- Title: structs Pages: 1 -->
<svg width="470pt" height="288pt"
 viewBox="0.00 0.00 469.59 287.64" xmlns="http://www.w3.org/2000/svg" xmlns:xlink="http://www.w3.org/1999/xlink">
<g id="graph0" class="graph" transform="scale(1 1) rotate(0) translate(4 283.64)">
<title>structs</title>
<polygon fill="white" stroke="transparent" points="-4,4 -4,-283.64 465.59,-283.64 465.59,4 -4,4"/>
<!-- gateway -->
<g id="node1" class="node">
<title>gateway</title>
<path fill="none" stroke="black" d="M355.59,-164.29C355.59,-164.29 442.59,-164.29 442.59,-164.29 448.59,-164.29 454.59,-170.29 454.59,-176.29 454.59,-176.29 454.59,-221.29 454.59,-221.29 454.59,-227.29 448.59,-233.29 442.59,-233.29 442.59,-233.29 355.59,-233.29 355.59,-233.29 349.59,-233.29 343.59,-227.29 343.59,-221.29 343.59,-221.29 343.59,-176.29 343.59,-176.29 343.59,-170.29 349.59,-164.29 355.59,-164.29"/>
<text text-anchor="middle" x="399.09" y="-218.09" font-family="Times,serif" font-size="14.00">172.18.0.1</text>
<polyline fill="none" stroke="black" points="343.59,-210.29 454.59,-210.29 "/>
<text text-anchor="middle" x="399.09" y="-195.09" font-family="Times,serif" font-size="14.00">Router BENDER</text>
<polyline fill="none" stroke="black" points="343.59,-187.29 454.59,-187.29 "/>
<text text-anchor="middle" x="399.09" y="-172.09" font-family="Times,serif" font-size="14.00">Red exterior</text>
</g>
<!-- mv1 -->
<g id="node2" class="node">
<title>mv1</title>
<path fill="none" stroke="black" d="M12,-112.29C12,-112.29 107,-112.29 107,-112.29 113,-112.29 119,-118.29 119,-124.29 119,-124.29 119,-169.29 119,-169.29 119,-175.29 113,-181.29 107,-181.29 107,-181.29 12,-181.29 12,-181.29 6,-181.29 0,-175.29 0,-169.29 0,-169.29 0,-124.29 0,-124.29 0,-118.29 6,-112.29 12,-112.29"/>
<text text-anchor="middle" x="59.5" y="-166.09" font-family="Times,serif" font-size="14.00">172.18.XX.31/16</text>
<polyline fill="none" stroke="black" points="0,-158.29 119,-158.29 "/>
<text text-anchor="middle" x="59.5" y="-143.09" font-family="Times,serif" font-size="14.00">MV1 PXE Server</text>
<polyline fill="none" stroke="black" points="0,-135.29 119,-135.29 "/>
<text text-anchor="middle" x="59.5" y="-120.09" font-family="Times,serif" font-size="14.00">192.168.XX.31/24</text>
</g>
<!-- netint -->
<g id="node4" class="node">
<title>netint</title>
<ellipse fill="lightgrey" stroke="black" cx="227.79" cy="-72.79" rx="72.59" ry="72.59"/>
<text text-anchor="middle" x="227.79" y="-69.09" font-family="Times,serif" font-size="14.00">192.168.XX.0/24</text>
</g>
<!-- mv1&#45;&#45;netint -->
<g id="edge3" class="edge">
<title>mv1:red1&#45;&#45;netint</title>
<path fill="none" stroke="black" d="M119,-123.79C135.25,-123.79 151.67,-119 166.63,-112.35"/>
</g>
<!-- net103 -->
<g id="node5" class="node">
<title>net103</title>
<ellipse fill="lightgrey" stroke="black" cx="227.79" cy="-221.79" rx="57.69" ry="57.69"/>
<text text-anchor="middle" x="227.79" y="-218.09" font-family="Times,serif" font-size="14.00">172.18.0.0/16</text>
</g>
<!-- mv1&#45;&#45;net103 -->
<g id="edge1" class="edge">
<title>mv1:red0&#45;&#45;net103</title>
<path fill="none" stroke="black" d="M119,-169.79C140.51,-169.79 162.24,-178.29 180.51,-188.42"/>
</g>
<!-- mv2 -->
<g id="node3" class="node">
<title>mv2</title>
<path fill="none" stroke="black" d="M348.59,-37.79C348.59,-37.79 449.59,-37.79 449.59,-37.79 455.59,-37.79 461.59,-43.79 461.59,-49.79 461.59,-49.79 461.59,-71.79 461.59,-71.79 461.59,-77.79 455.59,-83.79 449.59,-83.79 449.59,-83.79 348.59,-83.79 348.59,-83.79 342.59,-83.79 336.59,-77.79 336.59,-71.79 336.59,-71.79 336.59,-49.79 336.59,-49.79 336.59,-43.79 342.59,-37.79 348.59,-37.79"/>
<text text-anchor="middle" x="399.09" y="-68.59" font-family="Times,serif" font-size="14.00">192.168.XX.201/24</text>
<polyline fill="none" stroke="black" points="336.59,-60.79 461.59,-60.79 "/>
<text text-anchor="middle" x="399.09" y="-45.59" font-family="Times,serif" font-size="14.00">MV2 Client</text>
</g>
<!-- netint&#45;&#45;mv2 -->
<g id="edge4" class="edge">
<title>netint&#45;&#45;mv2:red1</title>
<path fill="none" stroke="black" d="M300.69,-72.79C312.68,-72.79 324.98,-72.79 336.59,-72.79"/>
</g>
<!-- net103&#45;&#45;gateway -->
<g id="edge2" class="edge">
<title>net103&#45;&#45;gateway:red0</title>
<path fill="none" stroke="black" d="M285.85,-221.79C303.84,-221.79 323.79,-221.79 342.09,-221.79"/>
</g>
</g>
</svg>
