<?xml version="1.0" encoding="UTF-8" standalone="no"?>
<svg
   xmlns:dc="http://purl.org/dc/elements/1.1/"
   xmlns:cc="http://creativecommons.org/ns#"
   xmlns:rdf="http://www.w3.org/1999/02/22-rdf-syntax-ns#"
   xmlns:svg="http://www.w3.org/2000/svg"
   xmlns="http://www.w3.org/2000/svg"
   xmlns:sodipodi="http://sodipodi.sourceforge.net/DTD/sodipodi-0.dtd"
   xmlns:inkscape="http://www.inkscape.org/namespaces/inkscape"
   version="1.1"
   id="svg336"
   width="68.26667"
   height="71.466667"
   viewBox="0 0 68.26667 71.466667"
   sodipodi:docname="logo-agustin-green.svg"
   inkscape:version="1.0.1 (3bc2e813f5, 2020-09-07)">
  <metadata
     id="metadata342">
    <rdf:RDF>
      <cc:Work
         rdf:about="">
        <dc:format>image/svg+xml</dc:format>
        <dc:type
           rdf:resource="http://purl.org/dc/dcmitype/StillImage" />
        <dc:title></dc:title>
      </cc:Work>
    </rdf:RDF>
  </metadata>
  <defs
     id="defs340" />
  <sodipodi:namedview
     pagecolor="#ffffff"
     bordercolor="#666666"
     borderopacity="1"
     objecttolerance="10"
     gridtolerance="10"
     guidetolerance="10"
     inkscape:pageopacity="0"
     inkscape:pageshadow="2"
     inkscape:window-width="1368"
     inkscape:window-height="719"
     id="namedview338"
     showgrid="false"
     inkscape:zoom="6.6245342"
     inkscape:cx="34.133335"
     inkscape:cy="42.2015"
     inkscape:window-x="0"
     inkscape:window-y="0"
     inkscape:window-maximized="1"
     inkscape:current-layer="g344" />
  <g
     inkscape:groupmode="layer"
     inkscape:label="Image"
     id="g344">
    <path
       style="fill:#00ff00;stroke-width:1.06667"
       d="m 13.9071,67.799381 -0.880574,-0.06001 -0.123735,-2.996285 -0.123735,-2.996285 -1.333333,0.80104 -1.333333,0.801041 1.6,-1.980772 1.6,-1.980772 0.342484,2.321787 0.342484,2.321785 z m 1.538623,-0.430927 -0.225382,-0.862597 2.843952,-1.481291 -1.557099,-1.437931 -2.128138,-1.57031 1.240393,-1.258867 1.240392,-1.258867 1.093979,0.676116 1.09398,0.676116 -0.217328,2.827484 -0.217328,2.827483 c -1.055807,0.287554 -2.111614,0.575109 -3.167421,0.862664 z m 1.6,-4.429079 h 1.066667 v -1.066667 -1.066666 h -1.066667 -1.066667 v 1.066666 1.066667 z m 5.317044,3.997747 -1.58371,0.431332 1.594804,-1.105755 1.594803,-1.105756 -2.128136,-1.570308 c 0,0 -1.384623,-0.927147 -1.413922,-1.651162 -0.04057,-1.002461 0.93964,-1.597637 1.766568,-2.436882 0.72932,0.450744 1.45864,0.901488 2.18796,1.352232 l -0.217328,2.827484 -0.217328,2.827483 z m 1.082957,-3.997747 c 0,-0.711111 0,-1.422222 0,-2.133333 -0.711111,0 -1.422223,0 -2.133334,0 0,0.711111 0,1.422222 0,2.133333 0.711111,0 1.422223,0 2.133334,0 z m 3.201122,4.44407 c -1.285852,-2.354718 -0.9691,-4.796548 -0.50524,-7.110737 1.056928,0 2.113856,0 3.170784,0 0,2.074074 0,4.148148 0,6.222222 -0.888514,0.296172 -1.777029,0.592344 -2.665544,0.888515 z m 2.132211,-6.577403 c -0.711111,0 -1.422222,0 -2.133333,0 -0.493168,7.274192 2.316413,7.716817 2.133333,0 z m 9.929619,6.383666 -1.270382,0.01633 -0.759245,-1.228485 -0.759245,-1.228484 2.024431,-1.4803 2.02443,-1.480299 -1.594803,-1.008216 -1.594804,-1.008215 1.270381,-0.01633 1.270382,-0.01633 0.759245,1.228484 0.759245,1.228484 -2.024431,1.4803 -2.02443,1.4803 1.594803,1.008215 1.594805,1.008216 z m 5.270943,-0.25052 -1.332772,0.444257 -0.624107,-1.626394 -0.624106,-1.626394 0.371487,-1.928975 0.371486,-1.928974 h 1.585392 1.585392 v 3.111112 3.11111 z m 0.799439,-0.799813 v -2.666667 -2.666666 c -0.711111,0 -1.422223,0 -2.133334,0 v 2.666666 2.666667 c 0.711111,0 1.422223,0 2.133334,0 z m 4.596285,1.050333 -1.270382,0.01633 -0.759245,-1.228485 -0.759245,-1.228484 c 1.34962,-0.986866 2.699241,-1.973733 4.048861,-2.960599 l -1.594803,-1.008216 -2.285748,-0.237359 c 0.846922,-0.01089 2.786419,-1.52401 3.231708,-0.803516 l 0.759244,1.228484 0.759245,1.228484 c -1.349621,0.986866 -2.699241,1.973733 -4.048861,2.9606 1.063203,0.672143 2.126405,1.344287 3.189608,2.016431 z m 3.938171,0.193737 c -1.24395,-2.887348 -1.042613,-4.320381 -0.50524,-7.110737 1.056928,0 2.113856,0 3.170784,0 0,2.074074 0,4.148148 0,6.222222 -0.888514,0.296172 -1.777029,0.592344 -2.665544,0.888515 z m 1.065544,-1.24407 h 1.066667 c 0,-1.777778 0,-3.555555 0,-5.333333 -0.711111,0 -1.422222,0 -2.133333,0 0,1.777778 0,3.555555 0,5.333333 z m -22.755556,-2.133333 -0.02339,-1.282623 c 1.096023,-0.251718 2.068029,-0.01758 3.143607,0.193277 l -0.27577,1.089346 c -0.948148,0 -1.896296,0 -2.844444,0 z m -3.768809,-5.736324 -1.262303,0.24299 c 0.76658,-0.374044 1.146605,-1.514627 1.913185,-1.888673 l -1.536648,-0.653919 c 0,0 -1.190613,-1.279295 -1.244833,-1.970203 0.566483,-0.95924 0.966497,-1.119621 1.802414,-1.967989 l 1.144713,0.707471 1.144713,0.707471 -0.349469,2.289932 -0.349469,2.289931 z m 0.924364,-2.79701 c 0,-0.711111 0,-1.422222 0,-2.133333 -1.417761,0.05511 -2.133333,-0.479679 -2.133333,1.066667 l -0.526185,1.060137 c 0.711111,0 1.948407,0.0065 2.659518,0.0065 z m -17.52381,2.133334 c 1.204512,-1.204513 2.409024,-2.409025 3.613537,-3.613537 -1.229909,-1.462155 -2.459819,-2.924309 -3.689728,-4.386463 1.605758,1.359867 3.211514,2.719735 4.817271,4.079603 -1.182637,1.306799 -2.365274,2.613598 -3.547911,3.920397 -0.397723,0 -0.795446,0 -1.193169,0 z m 40.457145,-0.168422 0.437614,-0.979065 c 1.575059,-0.148777 3.143986,-0.05609 4.719266,0.01426 l 0.176453,0.964801 c -1.777778,0 -3.555555,0 -5.333333,0 z M 21.221907,55.205431 c 0,0 -0.373033,2.081828 -1.054975,1.867277 -1.02214,-0.321584 0.306063,-3.2 0.306063,-3.2 l 0.306062,-3.2 c 1.066667,0 2.133333,0 3.2,0 0.204041,2.133333 0.612125,6.4 0.612125,6.4 l -1.106063,-1.6 c 0,0 -0.649039,-1.227528 -1.230686,-1.23738 -0.472185,-0.008 -1.032526,0.970103 -1.032526,0.970103 z m 2.223817,-1.866056 c 0,-0.711111 0,-1.422222 0,-2.133333 -0.711111,0 -1.422223,0 -2.133334,0 0,0.711111 0,1.422222 0,2.133333 0.711111,0 1.422223,0 2.133334,0 z m 8.466379,3.2 -0.63163,-1.646003 -0.631631,-1.646003 0.373222,-1.369665 0.956993,0.03945 c 0,1.185185 0,2.37037 0,3.555555 0.65897,0 1.317939,0 1.976909,0 0.338281,-1.259919 0.738548,-3.268296 0.975622,-3.733333 0.438086,1.326458 0.166199,3.223642 0.247469,4.8 -1.088985,0 -2.177969,0 -3.266954,0 z m 5.604003,-0.07497 -1.365523,-0.382535 1.617152,-0.497607 1.805683,-0.806105 -1.606624,-0.71139 -1.856285,-0.712323 0.663893,-1.074201 0.663892,-1.0742 c 1.202477,0.04997 3.141065,0.707079 3.141065,0.707079 -0.678646,0.775197 -2.274094,0.516423 -3.644324,1.053204 l 1.856286,0.712324 1.856285,0.712323 c -0.442595,0.716134 -0.88519,1.432268 -1.327785,2.148402 z m 4.852354,-2.58823 c 0,0 0.645717,3.252267 -0.469761,3.196533 -0.738228,-1.845852 -0.212166,-4.602095 -0.319641,-6.933333 l -1.333334,-0.01633 c 0,0 -1.41443,-0.422925 -0.91334,-0.74014 0.50109,-0.317215 1.64208,-0.05087 2.586548,-1.17948 l 1.067909,0.857006 1.971088,0.309167 -1.059855,0.655026 -1.059854,0.655025 -0.46976,3.196533 z m 3.055043,2.374311 -0.644445,0.644444 0.08421,-2.044444 0.08421,-2.044444 0.560234,1.4 0.560234,1.4 z m 2.476861,-2.029869 -0.923101,2.852091 -0.03244,-2.305617 -0.03244,-2.305617 1.866667,0.273058 1.866667,0.273058 0.257612,2.032559 0.257619,2.032559 -0.881849,-2.086024 -0.881851,-2.086026 z m -2.713876,-1.947909 h -0.533333 l 0.659236,-1.066666 0.659237,-1.066667 h 0.533333 0.533333 l -0.659236,1.066667 -0.659236,1.066666 z M 14.91239,46.939375 c -0.384854,-6.935859 0.466158,-14.101821 1.921044,-20.321503 l 4.756313,-5.572583 4.756305,-5.572581 c 1.889647,-3.733333 3.779295,-7.4666667 5.668942,-11.2000001 0.700028,0 1.400057,0 2.100085,0 2.208172,4.6736018 4.416342,9.3472041 6.624513,14.0208061 0.963863,0.36987 1.927726,0.739738 2.891589,1.109607 0.406177,1.27975 0.812353,2.5595 1.21853,3.83925 1.381542,0.361282 2.763085,0.722563 4.144627,1.083844 1.253004,3.082484 2.104451,5.622851 3.114967,8.822224 l 1.203086,3.809065 v 2.261317 2.261318 c -0.711111,0.439491 -1.422223,0.878981 -2.133334,1.318472 0,-2.140299 0,-4.280599 0,-6.420898 l -1.155055,-5.385836 -1.155055,-5.385836 c -2.387996,0 -4.775991,0 -7.163987,0 -0.439492,-0.71111 -0.878982,-1.422222 -1.318473,-2.133333 1.108634,0 2.217269,0 3.325903,0 0,-0.568889 0,-1.137778 0,-1.706667 l -1.196645,-1.196645 -1.196646,-1.196645 -1.203354,0.275157 -1.203355,0.275157 0.66339,-0.401864 0.66339,-0.401864 C 38.019132,14.529062 35.799094,9.938788 33.579056,5.3485136 c -0.393284,-0.00305 -0.786567,-0.00609 -1.179851,-0.00914 -2.137294,4.5888175 -4.274588,9.1776354 -6.411882,13.7664524 3.241689,0.260783 9.745909,-0.412236 9.725067,0.782352 -0.02084,1.194588 -7.974378,0.43716 -12.418823,0.565337 0,0.711111 -0.914511,1.241415 -0.914511,1.952526 h 6.815164 6.815164 c 1.644695,1.331794 3.289391,2.663588 4.934087,3.995381 l 1.339265,5.735643 1.339266,5.735643 0.04519,4.533334 0.04519,4.533333 h -1.066667 -1.066666 l -0.06848,-4 -0.06849,-4 -1.309148,-6.199618 -1.309148,-6.199618 c -1.037134,-0.656031 -2.074267,-1.312064 -3.1114,-1.968096 h -7.466667 -7.466667 c -1.031722,0.652687 -1.581662,1.918594 -2.613384,2.571281 l -0.928097,9.591415 -0.446316,10.204636 c -0.626287,0 -1.252575,0 -1.878862,0 z m 7.466667,0.125903 c 0,-2.424742 0,-4.849484 0,-7.274226 0.807649,-2.316825 1.615298,-4.633651 2.422948,-6.950476 2.520882,0.409081 5.041763,0.818165 7.562644,1.227248 l 1.394311,1.39431 1.394311,1.394312 0.937168,5.016413 0.937167,5.016412 -0.924274,-0.571233 -0.924275,-0.571233 V 43.21253 c -0.203338,-2.152925 -0.354466,-3.466594 -1.040265,-5.270382 l -1.040266,-2.736107 c -2.168535,0 -4.337069,0 -6.505604,0 -0.69351,1.824071 -1.387021,3.648142 -2.080532,5.472213 0,1.689517 0,3.379034 0,5.068551 -0.71111,0.439492 -1.422222,0.878982 -2.133333,1.318473 z"
       id="path348"
       sodipodi:nodetypes="cccccccccccccccccccccccccccccccccccccaccccccccccccccccccccccccccccccccccccccccccccccccccccccccccccscccccccccccccccccccccccccccccccccccccccccccccccccscccccsccccccccccccccccccccccccsccccccccczccccccccccccccccccccccccccccccccccccccccccccccccccccccccccccccccczccccccccccccccccccccccccccccccccccccccc" />
  </g>
</svg>
