<?xml version="1.0" encoding="UTF-8" standalone="no"?>
<svg
   xmlns:dc="http://purl.org/dc/elements/1.1/"
   xmlns:cc="http://creativecommons.org/ns#"
   xmlns:rdf="http://www.w3.org/1999/02/22-rdf-syntax-ns#"
   xmlns:svg="http://www.w3.org/2000/svg"
   xmlns="http://www.w3.org/2000/svg"
   xmlns:sodipodi="http://sodipodi.sourceforge.net/DTD/sodipodi-0.dtd"
   xmlns:inkscape="http://www.inkscape.org/namespaces/inkscape"
   version="1.1"
   id="svg336"
   width="68.26667"
   height="71.466667"
   viewBox="0 0 68.26667 71.466667"
   sodipodi:docname="logo-agustin-black.svg"
   inkscape:version="1.0.1 (3bc2e813f5, 2020-09-07)">
  <metadata
     id="metadata342">
    <rdf:RDF>
      <cc:Work
         rdf:about="">
        <dc:format>image/svg+xml</dc:format>
        <dc:type
           rdf:resource="http://purl.org/dc/dcmitype/StillImage" />
        <dc:title></dc:title>
      </cc:Work>
    </rdf:RDF>
  </metadata>
  <defs
     id="defs340" />
  <sodipodi:namedview
     pagecolor="#ffffff"
     bordercolor="#666666"
     borderopacity="1"
     objecttolerance="10"
     gridtolerance="10"
     guidetolerance="10"
     inkscape:pageopacity="0"
     inkscape:pageshadow="2"
     inkscape:window-width="1368"
     inkscape:window-height="719"
     id="namedview338"
     showgrid="false"
     inkscape:zoom="3.8067746"
     inkscape:cx="34.133335"
     inkscape:cy="35.733334"
     inkscape:window-x="0"
     inkscape:window-y="0"
     inkscape:window-maximized="1"
     inkscape:current-layer="g344" />
  <g
     inkscape:groupmode="layer"
     inkscape:label="Image"
     id="g344">
    <path
       style="fill:#000000;stroke-width:1.06667"
       d="m 13.511942,65.885145 -0.485416,1.85423 -0.123735,-2.996285 -0.123735,-2.996285 -1.333333,0.80104 -1.333333,0.801041 1.6,-1.980772 1.6,-1.980772 0.342484,2.321787 0.342484,2.321785 z m 3.517491,1.051977 -1.58371,0.431332 1.594804,-1.105755 1.594804,-1.105756 -2.128137,-1.570308 -2.128138,-1.57031 1.240393,-1.258867 1.240392,-1.258867 1.093979,0.676116 1.09398,0.676116 -0.217328,2.827484 -0.217328,2.827483 z m 0.01629,-3.997747 h 1.066667 v -1.066667 -1.066666 h -1.066667 -1.066667 v 1.066666 1.066667 z m 5.317044,3.997747 -1.58371,0.431332 1.594804,-1.105755 1.594803,-1.105756 -2.128136,-1.570308 -2.128138,-1.57031 1.240393,-1.258867 1.240391,-1.258867 1.09398,0.676116 1.09398,0.676116 -0.217328,2.827484 -0.217328,2.827483 z m 0.01629,-3.997747 h 1.066667 V 61.872708 60.806042 H 22.379057 21.31239 v 1.066666 1.066667 z m 5.600561,3.999813 -1.332772,0.444257 -0.624107,-1.626394 -0.624106,-1.626394 0.371487,-1.928975 0.371486,-1.928974 h 1.585392 1.585392 v 3.111112 3.11111 z M 27.71239,66.139375 h 1.066667 V 63.472708 60.806042 H 27.71239 26.645724 v 2.666666 2.666667 z m 10.996286,1.050333 -1.270382,0.01633 -0.759245,-1.228485 -0.759245,-1.228484 2.024431,-1.4803 2.02443,-1.480299 -1.594803,-1.008216 -1.594804,-1.008215 1.270381,-0.01633 1.270382,-0.01633 0.759245,1.228484 0.759245,1.228484 -2.024431,1.4803 -2.02443,1.4803 1.594803,1.008215 1.594805,1.008216 z m 5.270943,-0.25052 -1.332772,0.444257 -0.624107,-1.626394 -0.624106,-1.626394 0.371487,-1.928975 0.371486,-1.928974 h 1.585392 1.585392 v 3.111112 3.11111 z m -0.267228,-0.799813 h 1.066667 v -2.666667 -2.666666 h -1.066667 -1.066667 v 2.666666 2.666667 z m 5.662952,1.050333 -1.270382,0.01633 -0.759245,-1.228485 -0.759245,-1.228484 2.024431,-1.4803 2.02443,-1.480299 -1.594803,-1.008216 -1.594804,-1.008215 1.270382,-0.01633 1.270382,-0.01633 0.759244,1.228484 0.759245,1.228484 -2.024431,1.4803 -2.02443,1.4803 1.594804,1.008215 1.594804,1.008216 z m 5.270943,-0.25052 -1.332772,0.444257 -0.624107,-1.626394 -0.624106,-1.626394 0.371487,-1.928975 0.371486,-1.928974 h 1.585392 1.585392 v 3.111112 3.11111 z m -0.267228,-0.799813 h 1.066667 v -2.666667 -2.666666 h -1.066667 -1.066666 v 2.666666 2.666667 z M 33.045724,64.006042 h -1.422222 l 0.71111,-0.711112 0.711112,-0.71111 0.711112,0.71111 0.71111,0.711112 z m -5.191031,-5.736324 -1.262303,0.24299 1.14987,-0.561067 1.149869,-0.561068 -1.923202,-1.420457 -1.923203,-1.420457 1.240392,-1.258868 1.240392,-1.258867 1.144713,0.707471 1.144713,0.707471 -0.349469,2.289932 -0.349469,2.289931 z m -0.142303,-2.79701 h 1.066667 V 54.406042 53.339375 H 27.71239 26.645724 v 1.066667 1.066666 z m -15.860558,2.133334 h -0.596585 l 1.806768,-1.806769 1.806769,-1.806768 -1.844864,-2.193232 -1.844864,-2.193231 2.408636,2.039801 2.408635,2.039802 -1.773955,1.960198 -1.773956,1.960199 z M 54.379058,57.43762 h -2.666666 l 1.333333,-0.538011 1.333333,-0.538012 1.333334,0.538012 1.333333,0.538011 z m -33.106063,-1.964912 -1.106063,1.6 0.306063,-3.2 0.306062,-3.2 h 1.6 1.6 l 0.306062,3.2 0.306063,3.2 -1.106063,-1.6 -1.106062,-1.6 z m 1.106062,-2.133333 h 1.066667 V 52.272708 51.206042 H 22.379057 21.31239 v 1.066666 1.066667 z m 11.166523,3.2 h -1.633477 l -0.63163,-1.646003 -0.631631,-1.646003 0.665107,-0.665109 0.665108,-0.665107 v 1.777777 1.777778 h 0.988455 0.988454 l 0.48781,-1.866666 0.487812,-1.866667 0.123735,2.4 0.123734,2.4 z m 3.970526,-0.07497 -1.803715,-0.07497 2.055344,-0.805172 2.055345,-0.805172 -1.856286,-0.712323 -1.856285,-0.712323 0.663893,-1.074201 0.663892,-1.0742 1.803715,0.07496 1.803715,0.07498 -2.055344,0.805171 -2.055345,0.805172 1.856286,0.712324 1.856285,0.712323 -0.663892,1.0742 -0.663893,1.074202 z m 4.852354,-2.58823 -0.469761,3.196533 -0.15982,-3.466666 -0.159821,-3.466667 -1.333334,-0.01633 -1.333333,-0.01633 1.50327,-0.951645 1.503271,-0.951645 1.519499,0.583087 1.519498,0.583086 -1.059855,0.655026 -1.059854,0.655025 -0.46976,3.196533 z m 3.055043,2.374311 -0.644445,0.644444 0.08421,-2.044444 0.08421,-2.044444 0.560234,1.4 0.560234,1.4 z m 2.763752,-1.263802 -1.209992,2.086024 -0.03244,-2.305617 -0.03244,-2.305617 1.866667,0.273058 1.866667,0.273058 0.257612,2.032559 0.257619,2.032559 -0.881849,-2.086024 -0.881851,-2.086026 z m -3.000767,-2.713976 h -0.533333 l 0.659236,-1.066666 0.659237,-1.066667 h 0.533333 0.533333 l -0.659236,1.066667 -0.659236,1.066666 z M 15.851826,46.939375 H 14.91239 l 0.02545,-6.133333 0.02545,-6.133334 0.935072,-4.027419 0.935072,-4.027417 4.756313,-5.572583 4.756305,-5.572581 2.834471,-5.6000001 2.834471,-5.6 h 1.050043 1.050042 l 3.312257,7.0104031 3.312256,7.010403 1.445794,0.554804 1.445795,0.554803 0.609265,1.919625 0.609265,1.919625 2.072313,0.541922 2.072314,0.541922 0.95594,2.50658 0.955941,2.50658 1.203086,3.809064 1.203086,3.809065 v 2.261317 2.261318 l -1.066667,0.659236 -1.066667,0.659236 V 39.588162 36.377713 L 50.024002,30.991877 48.868947,25.606041 H 45.286953 41.70496 l -0.659237,-1.066666 -0.659236,-1.066667 h 1.662952 1.662951 v -0.853333 -0.853334 l -1.196645,-1.196645 -1.196646,-1.196645 -1.203354,0.275157 -1.203355,0.275157 0.66339,-0.401864 0.66339,-0.401864 -3.330057,-6.885412 -3.330057,-6.8854114 -0.589925,-0.00457 -0.589926,-0.00457 -3.205941,6.8832264 -3.205941,6.883226 4.862533,0.391175 4.862534,0.391177 -6.666667,0.192265 -6.666667,0.192265 v 1.066667 1.066666 h 6.815164 6.815164 l 2.467043,1.997691 2.467044,1.99769 1.339265,5.735643 1.339266,5.735643 0.04519,4.533334 0.04519,4.533333 h -1.066667 -1.066666 l -0.06848,-4 -0.06849,-4 -1.309148,-6.199618 -1.309148,-6.199618 -1.555701,-0.984048 -1.555699,-0.984048 h -7.466667 -7.466667 l -1.547582,0.97903 -1.547583,0.979031 -0.446316,10.204635 -0.446316,10.204636 z m 7.593898,-0.533333 -1.066667,0.659236 v -3.637114 -3.637112 l 1.211474,-3.475239 1.211474,-3.475237 3.781322,0.613623 3.781322,0.613625 1.394311,1.39431 1.394311,1.394312 0.937168,5.016413 0.937167,5.016412 -0.924274,-0.571233 -0.924275,-0.571233 V 43.21253 40.678254 l -1.040265,-2.736106 -1.040266,-2.736107 h -3.252802 -3.252802 l -1.040266,2.736107 -1.040266,2.736106 v 2.534276 2.534275 z"
       id="path348" />
  </g>
</svg>
