<?xml version="1.0" encoding="UTF-8"?>
<svg viewBox="491.11 298 150 57.361" width="150px" height="57.361px" xmlns="http://www.w3.org/2000/svg">
  <g id="Mesa-de-trabajo11" transform="matrix(0.189822, 0, 0, 0.189822, 397.886292, 241.432755)">
    <g id="_53051320" transform="matrix(1,0,0,1,491,298)">
      <path id="_53139064" d="M186.655,93.188C187.566,94.813 205.518,104.795 210.308,112.086C217.162,122.516 219.228,129.902 217.609,129.949C212.503,130.096 212.534,130.147 211.29,129.106C210.158,125.747 207.334,119.021 204.576,113.814C181.213,96.674 181.272,101.959 176.81,92.242C168.356,73.831 139.513,21.931 139.76,11.248C139.899,5.246 136.229,7.028 136.279,6.213C136.456,3.348 135.319,0.888 135.825,1.005C137.377,1.364 140.701,2.257 142.356,3.44C144.273,4.811 144.002,6.058 143.851,11.274C154.99,35.264 174.206,70.985 186.655,93.188L186.655,93.188Z" style="fill:rgb(102,102,255);"/>
      <path id="_53135864" d="M55.19,106.498C56.303,100.529 71.128,96.652 78.001,90.87C101.431,48 111.593,24.342 116.882,14.295C117.755,12.637 117.247,12.778 117.056,11.733C115.698,-3.462 132.229,0.388 132.966,0.553C133.715,0.719 133.977,3.923 134.042,6.08C116.118,2.159 123.384,12.682 121.662,14C118.948,20.42 89.245,85.453 87.105,94.103L65.34,105.357C58.975,108.648 60.177,123.043 57.684,123.439C55.192,123.834 53.866,123.882 50.394,124.28C45.478,125.972 54.84,108.906 55.19,106.498L55.19,106.498Z" style="fill:rgb(0,255,0);"/>
      <path id="_53134752" d="M236.158,134.966C233.355,131.102 186.251,131.392 180.617,131.424C183.035,134.133 183.255,136.991 186.018,143.462C186.407,144.375 232.818,144.657 238.21,145.301C240.776,144.488 239.515,140.239 236.158,134.966L236.158,134.966Z" style="fill:rgb(255,0,255);"/>
      <path id="_53133536" d="M180.31,134.785C196.654,175.449 211.323,246.761 209.737,288.427C209.266,300.811 191.587,304.906 192.774,300.42C204.996,266.807 168.491,128.811 166.581,129.731L173.381,130.556C174.758,130.744 178.697,131.413 180.31,134.785L180.31,134.785Z" style="fill:rgb(255,0,0);"/>
      <path id="_53131904" d="M0.11,300.404C1.063,255.159 9.317,178.389 17.944,135.492C20.645,122.06 164.425,124.557 165.309,130.419C167.3,135.071 171.814,147.377 167.53,145.023C142.741,134.125 35.788,136.5 28.267,148.067C21.964,170.09 16.928,249.996 17.423,273.127L17.744,288.128C18.098,304.629 1.457,303.114 0.11,300.404L0.11,300.404Z" style="fill:rgb(255,204,0);stroke:white;stroke-width:0.22px;"/>
      <path id="_53130456" d="M75.37,260.861C76.846,249.1 73.13,222.498 85.871,216.758C112.534,204.747 118.379,227.93 118.489,235.958C118.59,243.311 119.475,226.227 113.832,214.112C109.64,197.582 71.699,190.428 65.617,223.369C64.724,228.209 56.711,292.825 61.542,293.344C74.228,294.708 73.612,274.875 75.37,260.861L75.37,260.861Z" style="fill:rgb(255,102,51);stroke:rgb(255,102,51);stroke-width:0.22px;"/>
      <path id="_53129344" d="M281.141,255.387C276.282,222.767 260.34,171.31 250.748,140.493C248.976,134.8 237.287,133.649 238.634,135.187C245.171,144.29 261.811,219.302 263.508,236.835L265.13,253.591C266.286,265.535 281.73,257.935 281.141,255.387L281.141,255.387Z" style="fill:rgb(153,0,204);stroke:white;stroke-width:0.22px;"/>
      <path id="_53066784" d="M125.048,102.848C95.744,100.487 72.016,104.907 66.64,105.306C53.834,105.013 57.433,113.503 60.935,112.669C76.083,109.059 116.334,108.442 129.2,109.453C129.658,109.789 128.516,105.669 125.047,102.849L125.048,102.848Z" style="fill:rgb(0,255,0);"/>
      <path id="_53065712" d="M175.199,106.078C188.381,107.325 202.857,113.182 205.208,114.024C210.91,115.114 209.865,121.284 207.109,120.216C197.609,116.535 195.125,115.248 180.777,112.452C178.38,111.601 178.067,109.193 175.199,106.078L175.199,106.078Z" style="fill:rgb(102,102,255);stroke:rgb(102,102,255);stroke-width:0.22px;"/>
      <g id="_53060816" transform="matrix(1,0,0,1,309.782,40.5127)">
        <g transform="matrix(47.5155,0,0,47.5155,0,0)">
          <rect x="0.091" y="-0.727" width="0.09" height="0.727" style="fill:rgb(102,102,102);fill-rule:nonzero;"/>
        </g>
        <g transform="matrix(47.5155,0,0,47.5155,13.1549,0)">
          <path d="M0.09,-0L0.09,-0.727L0.806,-0.727L0.806,-0.646L0.178,-0.646L0.178,-0.418L0.78,-0.418L0.78,-0.337L0.178,-0.337L0.178,-0.081L0.806,-0.081L0.806,-0L0.09,-0Z" style="fill:rgb(102,102,102);fill-rule:nonzero;"/>
        </g>
        <g transform="matrix(47.5155,0,0,47.5155,53.5477,0)">
          <path d="M0.075,-0.237L0.162,-0.237C0.162,-0.233 0.161,-0.229 0.161,-0.223C0.16,-0.209 0.16,-0.199 0.16,-0.194C0.16,-0.148 0.175,-0.117 0.205,-0.099C0.235,-0.081 0.291,-0.072 0.373,-0.072L0.563,-0.072C0.662,-0.072 0.726,-0.082 0.756,-0.101C0.786,-0.121 0.801,-0.158 0.801,-0.213C0.801,-0.259 0.79,-0.29 0.77,-0.307C0.749,-0.324 0.706,-0.333 0.641,-0.333L0.334,-0.333C0.237,-0.333 0.169,-0.348 0.13,-0.378C0.09,-0.408 0.071,-0.46 0.071,-0.533C0.071,-0.608 0.093,-0.661 0.138,-0.691C0.183,-0.721 0.265,-0.736 0.384,-0.736L0.549,-0.736C0.639,-0.736 0.702,-0.732 0.738,-0.726C0.774,-0.719 0.803,-0.707 0.823,-0.69C0.84,-0.676 0.852,-0.657 0.86,-0.634C0.868,-0.61 0.872,-0.581 0.872,-0.546L0.872,-0.525L0.785,-0.525L0.785,-0.536C0.785,-0.584 0.774,-0.616 0.751,-0.633C0.728,-0.65 0.679,-0.658 0.605,-0.658L0.357,-0.658C0.281,-0.658 0.231,-0.65 0.204,-0.632C0.178,-0.615 0.165,-0.583 0.165,-0.537C0.165,-0.49 0.178,-0.458 0.203,-0.44C0.229,-0.423 0.282,-0.414 0.363,-0.414L0.624,-0.414C0.681,-0.414 0.724,-0.412 0.753,-0.407C0.781,-0.403 0.805,-0.395 0.822,-0.385C0.847,-0.37 0.865,-0.35 0.875,-0.323C0.886,-0.297 0.891,-0.258 0.891,-0.208C0.891,-0.127 0.869,-0.071 0.826,-0.039C0.782,-0.007 0.704,0.009 0.591,0.009L0.344,0.009C0.247,0.009 0.177,-0.006 0.135,-0.035C0.094,-0.065 0.073,-0.114 0.073,-0.182C0.073,-0.191 0.074,-0.207 0.075,-0.229C0.075,-0.232 0.075,-0.235 0.075,-0.237Z" style="fill:rgb(102,102,102);fill-rule:nonzero;"/>
        </g>
      </g>
      <g id="_53056080" transform="matrix(1,0,0,1,309.782,112.577)">
        <g transform="matrix(79.1931,0,0,79.1931,0,0)">
          <path d="M0.179,-0L0.089,-0L0.089,-0.727L0.594,-0.727C0.71,-0.727 0.786,-0.715 0.823,-0.69C0.86,-0.665 0.879,-0.62 0.879,-0.554L0.879,-0.459C0.879,-0.393 0.86,-0.348 0.823,-0.324C0.787,-0.299 0.71,-0.287 0.594,-0.287L0.179,-0.287L0.179,-0ZM0.179,-0.369L0.62,-0.369C0.686,-0.369 0.729,-0.377 0.75,-0.393C0.772,-0.408 0.782,-0.441 0.782,-0.491L0.782,-0.526C0.782,-0.576 0.772,-0.609 0.75,-0.625C0.729,-0.64 0.686,-0.648 0.62,-0.648L0.179,-0.648L0.179,-0.369Z" style="fill:rgb(51,51,51);fill-rule:nonzero;"/>
        </g>
      </g>
      <g id="_530560801" transform="matrix(1,0,0,1,379.084,112.577)">
        <g transform="matrix(79.1931,0,0,79.1931,0,0)">
          <path d="M0.702,-0.514L0.702,-0L0.624,-0L0.624,-0.097C0.604,-0.059 0.575,-0.033 0.538,-0.017C0.501,-0.001 0.447,0.007 0.375,0.007C0.266,0.007 0.189,-0.007 0.144,-0.036C0.099,-0.064 0.076,-0.112 0.076,-0.179L0.076,-0.514L0.157,-0.514L0.157,-0.204C0.157,-0.173 0.16,-0.15 0.165,-0.136C0.17,-0.122 0.179,-0.11 0.191,-0.101C0.206,-0.09 0.229,-0.082 0.262,-0.077C0.295,-0.072 0.337,-0.069 0.389,-0.069C0.469,-0.069 0.528,-0.079 0.564,-0.099C0.601,-0.119 0.619,-0.151 0.619,-0.194L0.619,-0.514L0.702,-0.514Z" style="fill:rgb(51,51,51);fill-rule:nonzero;"/>
        </g>
      </g>
      <g id="_530560802" transform="matrix(1,0,0,1,438.389,112.577)">
        <g transform="matrix(79.1931,0,0,79.1931,0,0)">
          <path d="M0.451,-0.521C0.548,-0.521 0.615,-0.503 0.653,-0.467C0.691,-0.431 0.71,-0.369 0.71,-0.279C0.71,-0.268 0.71,-0.26 0.71,-0.254C0.71,-0.249 0.709,-0.244 0.709,-0.239L0.147,-0.239L0.147,-0.211C0.147,-0.157 0.16,-0.119 0.187,-0.097C0.213,-0.076 0.259,-0.065 0.324,-0.065L0.458,-0.065C0.515,-0.065 0.557,-0.072 0.584,-0.086C0.611,-0.1 0.625,-0.122 0.625,-0.152L0.625,-0.157L0.71,-0.157L0.71,-0.144C0.71,-0.095 0.69,-0.057 0.651,-0.031C0.611,-0.006 0.553,0.007 0.477,0.007L0.323,0.007C0.231,0.007 0.165,-0.01 0.125,-0.044C0.085,-0.079 0.065,-0.135 0.065,-0.215L0.065,-0.297C0.065,-0.378 0.085,-0.435 0.124,-0.469C0.164,-0.504 0.23,-0.521 0.323,-0.521L0.451,-0.521ZM0.147,-0.313L0.624,-0.313L0.624,-0.325C0.624,-0.371 0.612,-0.403 0.589,-0.42C0.565,-0.437 0.519,-0.446 0.449,-0.446L0.322,-0.446C0.257,-0.446 0.212,-0.436 0.186,-0.416C0.16,-0.396 0.147,-0.361 0.147,-0.313Z" style="fill:rgb(51,51,51);fill-rule:nonzero;"/>
        </g>
      </g>
      <g id="_530560803" transform="matrix(1,0,0,1,496.431,112.577)">
        <g transform="matrix(79.1931,0,0,79.1931,0,0)">
          <path d="M0.08,-0L0.08,-0.509L0.159,-0.509L0.159,-0.433C0.176,-0.465 0.199,-0.488 0.23,-0.501C0.261,-0.514 0.308,-0.521 0.373,-0.521C0.46,-0.521 0.521,-0.508 0.556,-0.482C0.591,-0.456 0.609,-0.412 0.609,-0.35L0.609,-0.282L0.533,-0.282L0.533,-0.33C0.533,-0.376 0.521,-0.407 0.497,-0.422C0.473,-0.437 0.425,-0.445 0.353,-0.445C0.287,-0.445 0.238,-0.435 0.208,-0.415C0.178,-0.395 0.163,-0.363 0.163,-0.319L0.163,-0L0.08,-0Z" style="fill:rgb(51,51,51);fill-rule:nonzero;"/>
        </g>
      </g>
      <g id="_530560804" transform="matrix(1,0,0,1,544.572,112.577)">
        <g transform="matrix(79.1931,0,0,79.1931,0,0)">
          <path d="M0.196,-0.514L0.534,-0.514L0.534,-0.445L0.195,-0.445L0.195,-0.175C0.195,-0.133 0.204,-0.104 0.222,-0.088C0.24,-0.073 0.282,-0.065 0.347,-0.065C0.4,-0.065 0.435,-0.071 0.453,-0.084C0.471,-0.097 0.48,-0.126 0.48,-0.169L0.48,-0.235L0.551,-0.235L0.551,-0.169C0.551,-0.104 0.534,-0.058 0.502,-0.032C0.469,-0.006 0.411,0.007 0.328,0.007C0.285,0.007 0.249,0.003 0.222,-0.005C0.194,-0.014 0.172,-0.026 0.154,-0.044C0.14,-0.057 0.131,-0.072 0.125,-0.09C0.12,-0.108 0.117,-0.138 0.117,-0.18L0.117,-0.445L0.007,-0.445L0.007,-0.514L0.117,-0.514L0.117,-0.632L0.196,-0.632L0.196,-0.514Z" style="fill:rgb(51,51,51);fill-rule:nonzero;"/>
        </g>
      </g>
      <g id="_530560805" transform="matrix(1,0,0,1,588.186,112.577)">
        <g transform="matrix(79.1931,0,0,79.1931,0,0)">
          <path d="M0.311,0.007C0.222,0.007 0.159,-0.01 0.122,-0.045C0.084,-0.08 0.065,-0.138 0.065,-0.22L0.065,-0.301C0.065,-0.38 0.084,-0.436 0.122,-0.47C0.161,-0.504 0.223,-0.521 0.311,-0.521L0.488,-0.521C0.575,-0.521 0.638,-0.504 0.677,-0.47C0.715,-0.436 0.734,-0.38 0.734,-0.301L0.734,-0.22C0.734,-0.138 0.715,-0.08 0.677,-0.045C0.639,-0.01 0.576,0.007 0.488,0.007L0.311,0.007ZM0.332,-0.069L0.466,-0.069C0.541,-0.069 0.59,-0.08 0.615,-0.102C0.64,-0.123 0.652,-0.166 0.652,-0.229L0.652,-0.29C0.652,-0.351 0.639,-0.392 0.615,-0.414C0.59,-0.435 0.54,-0.446 0.466,-0.446L0.332,-0.446C0.258,-0.446 0.208,-0.435 0.184,-0.414C0.159,-0.392 0.147,-0.351 0.147,-0.29L0.147,-0.229C0.147,-0.166 0.159,-0.123 0.184,-0.102C0.208,-0.08 0.257,-0.069 0.332,-0.069Z" style="fill:rgb(51,51,51);fill-rule:nonzero;"/>
        </g>
      </g>
      <g id="_530560806" transform="matrix(1,0,0,1,309.782,182.539)">
        <g transform="matrix(79.1931,0,0,79.1931,0,0)">
          <path d="M0.441,-0.069C0.515,-0.069 0.565,-0.08 0.589,-0.102C0.614,-0.123 0.626,-0.166 0.626,-0.229L0.626,-0.29C0.626,-0.351 0.614,-0.392 0.589,-0.414C0.565,-0.435 0.515,-0.446 0.441,-0.446L0.326,-0.446C0.252,-0.446 0.203,-0.435 0.178,-0.414C0.153,-0.392 0.141,-0.351 0.141,-0.29L0.141,-0.229C0.141,-0.166 0.153,-0.123 0.178,-0.102C0.202,-0.08 0.252,-0.069 0.326,-0.069L0.441,-0.069ZM0.443,0.007L0.306,0.007C0.218,0.007 0.154,-0.01 0.117,-0.045C0.079,-0.08 0.06,-0.138 0.06,-0.22L0.06,-0.301C0.06,-0.38 0.079,-0.436 0.117,-0.47C0.156,-0.504 0.219,-0.521 0.306,-0.521L0.464,-0.521C0.502,-0.521 0.534,-0.515 0.56,-0.504C0.586,-0.492 0.607,-0.474 0.625,-0.449L0.625,-0.727L0.704,-0.727L0.704,-0L0.633,-0L0.633,-0.084C0.619,-0.051 0.598,-0.028 0.57,-0.014C0.542,-0 0.5,0.007 0.443,0.007Z" style="fill:rgb(51,51,51);fill-rule:nonzero;"/>
        </g>
      </g>
      <g id="_530560807" transform="matrix(1,0,0,1,369.09,182.539)">
        <g transform="matrix(79.1931,0,0,79.1931,0,0)">
          <path d="M0.451,-0.521C0.548,-0.521 0.615,-0.503 0.653,-0.467C0.691,-0.431 0.71,-0.369 0.71,-0.279C0.71,-0.268 0.71,-0.26 0.71,-0.254C0.71,-0.249 0.709,-0.244 0.709,-0.239L0.147,-0.239L0.147,-0.211C0.147,-0.157 0.16,-0.119 0.187,-0.097C0.213,-0.076 0.259,-0.065 0.324,-0.065L0.458,-0.065C0.515,-0.065 0.557,-0.072 0.584,-0.086C0.611,-0.1 0.625,-0.122 0.625,-0.152L0.625,-0.157L0.71,-0.157L0.71,-0.144C0.71,-0.095 0.69,-0.057 0.651,-0.031C0.611,-0.006 0.553,0.007 0.477,0.007L0.323,0.007C0.231,0.007 0.165,-0.01 0.125,-0.044C0.085,-0.079 0.065,-0.135 0.065,-0.215L0.065,-0.297C0.065,-0.378 0.085,-0.435 0.124,-0.469C0.164,-0.504 0.23,-0.521 0.323,-0.521L0.451,-0.521ZM0.147,-0.313L0.624,-0.313L0.624,-0.325C0.624,-0.371 0.612,-0.403 0.589,-0.42C0.565,-0.437 0.519,-0.446 0.449,-0.446L0.322,-0.446C0.257,-0.446 0.212,-0.436 0.186,-0.416C0.16,-0.396 0.147,-0.361 0.147,-0.313Z" style="fill:rgb(51,51,51);fill-rule:nonzero;"/>
        </g>
      </g>
      <g id="_530560808" transform="matrix(1,0,0,1,448.581,182.539)">
        <g transform="matrix(79.1931,0,0,79.1931,0,0)">
          <rect x="0.094" y="-0.727" width="0.081" height="0.727" style="fill:rgb(51,51,51);fill-rule:nonzero;"/>
        </g>
      </g>
      <g id="_530560809" transform="matrix(1,0,0,1,467.25,182.539)">
        <g transform="matrix(79.1931,0,0,79.1931,0,0)">
          <path d="M0.601,-0.136L0.601,-0.181C0.601,-0.206 0.589,-0.224 0.566,-0.234C0.542,-0.244 0.498,-0.249 0.432,-0.249L0.309,-0.249C0.237,-0.249 0.191,-0.243 0.17,-0.232C0.15,-0.22 0.139,-0.198 0.139,-0.164C0.139,-0.125 0.149,-0.099 0.168,-0.087C0.188,-0.075 0.235,-0.069 0.309,-0.069L0.432,-0.069C0.499,-0.069 0.544,-0.074 0.567,-0.084C0.59,-0.094 0.601,-0.111 0.601,-0.136ZM0.453,-0.521C0.533,-0.521 0.591,-0.506 0.628,-0.475C0.665,-0.445 0.684,-0.397 0.684,-0.332L0.684,-0L0.606,-0L0.606,-0.068C0.593,-0.041 0.573,-0.022 0.546,-0.01C0.519,0.001 0.479,0.007 0.425,0.007L0.288,0.007C0.2,0.007 0.139,-0.006 0.103,-0.03C0.068,-0.055 0.05,-0.098 0.05,-0.16C0.05,-0.218 0.067,-0.259 0.103,-0.283C0.138,-0.307 0.199,-0.319 0.286,-0.319L0.43,-0.319C0.473,-0.319 0.509,-0.314 0.537,-0.304C0.565,-0.294 0.588,-0.279 0.606,-0.258L0.606,-0.328C0.606,-0.372 0.594,-0.402 0.571,-0.419C0.548,-0.435 0.504,-0.444 0.44,-0.444L0.318,-0.444C0.255,-0.444 0.215,-0.439 0.197,-0.43C0.18,-0.42 0.171,-0.402 0.171,-0.374L0.171,-0.359L0.085,-0.359L0.085,-0.373C0.085,-0.425 0.102,-0.463 0.137,-0.486C0.171,-0.509 0.227,-0.521 0.305,-0.521L0.453,-0.521Z" style="fill:rgb(51,51,51);fill-rule:nonzero;"/>
        </g>
      </g>
      <g id="_5305608010" transform="matrix(1,0,0,1,309.782,252.501)">
        <g transform="matrix(79.1931,0,0,79.1931,0,0)">
          <path d="M0.39,0.009C0.316,0.009 0.261,0.005 0.227,-0.003C0.193,-0.01 0.165,-0.023 0.143,-0.042C0.119,-0.063 0.101,-0.09 0.091,-0.124C0.08,-0.157 0.074,-0.202 0.074,-0.258L0.074,-0.456C0.074,-0.517 0.08,-0.565 0.091,-0.601C0.101,-0.636 0.119,-0.665 0.143,-0.685C0.165,-0.704 0.193,-0.717 0.229,-0.724C0.264,-0.732 0.317,-0.736 0.389,-0.736L0.618,-0.736C0.737,-0.736 0.817,-0.721 0.858,-0.692C0.9,-0.662 0.921,-0.609 0.921,-0.531C0.921,-0.521 0.921,-0.513 0.921,-0.507C0.92,-0.502 0.92,-0.497 0.92,-0.492L0.837,-0.492L0.837,-0.503C0.837,-0.56 0.824,-0.599 0.8,-0.622C0.775,-0.644 0.731,-0.656 0.668,-0.656L0.353,-0.656C0.31,-0.656 0.277,-0.652 0.253,-0.644C0.229,-0.635 0.21,-0.622 0.197,-0.603C0.187,-0.59 0.181,-0.574 0.177,-0.555C0.173,-0.537 0.171,-0.506 0.171,-0.462L0.171,-0.269C0.171,-0.225 0.173,-0.194 0.177,-0.176C0.181,-0.157 0.187,-0.141 0.197,-0.128C0.21,-0.109 0.229,-0.096 0.253,-0.087C0.277,-0.079 0.31,-0.075 0.353,-0.075L0.667,-0.075C0.736,-0.075 0.783,-0.086 0.808,-0.108C0.833,-0.131 0.845,-0.171 0.845,-0.229L0.845,-0.249L0.928,-0.249L0.929,-0.213C0.929,-0.167 0.925,-0.131 0.916,-0.104C0.906,-0.077 0.892,-0.054 0.871,-0.037C0.852,-0.02 0.824,-0.008 0.789,-0.001C0.754,0.005 0.697,0.009 0.618,0.009L0.39,0.009Z" style="fill:rgb(51,51,51);fill-rule:nonzero;"/>
        </g>
      </g>
      <g id="_5305608011" transform="matrix(1,0,0,1,385.8,252.501)">
        <g transform="matrix(79.1931,0,0,79.1931,0,0)">
          <path d="M0.08,-0L0.08,-0.509L0.159,-0.509L0.159,-0.433C0.176,-0.465 0.199,-0.488 0.23,-0.501C0.261,-0.514 0.308,-0.521 0.373,-0.521C0.46,-0.521 0.521,-0.508 0.556,-0.482C0.591,-0.456 0.609,-0.412 0.609,-0.35L0.609,-0.282L0.533,-0.282L0.533,-0.33C0.533,-0.376 0.521,-0.407 0.497,-0.422C0.473,-0.437 0.425,-0.445 0.353,-0.445C0.287,-0.445 0.238,-0.435 0.208,-0.415C0.178,-0.395 0.163,-0.363 0.163,-0.319L0.163,-0L0.08,-0Z" style="fill:rgb(51,51,51);fill-rule:nonzero;"/>
        </g>
      </g>
      <g id="_5305608012" transform="matrix(1,0,0,1,433.941,252.501)">
        <g transform="matrix(79.1931,0,0,79.1931,0,0)">
          <path d="M0.702,-0.514L0.702,-0L0.624,-0L0.624,-0.097C0.604,-0.059 0.575,-0.033 0.538,-0.017C0.501,-0.001 0.447,0.007 0.375,0.007C0.266,0.007 0.189,-0.007 0.144,-0.036C0.099,-0.064 0.076,-0.112 0.076,-0.179L0.076,-0.514L0.157,-0.514L0.157,-0.204C0.157,-0.173 0.16,-0.15 0.165,-0.136C0.17,-0.122 0.179,-0.11 0.191,-0.101C0.206,-0.09 0.229,-0.082 0.262,-0.077C0.295,-0.072 0.337,-0.069 0.389,-0.069C0.469,-0.069 0.528,-0.079 0.564,-0.099C0.601,-0.119 0.619,-0.151 0.619,-0.194L0.619,-0.514L0.702,-0.514Z" style="fill:rgb(51,51,51);fill-rule:nonzero;"/>
        </g>
      </g>
      <g id="_5305608013" transform="matrix(1,0,0,1,493.25,252.501)">
        <g transform="matrix(79.1931,0,0,79.1931,0,0)">
          <path d="M0.049,-0.077L0.497,-0.447L0.067,-0.447L0.067,-0.514L0.611,-0.514L0.611,-0.442L0.163,-0.072L0.614,-0.072L0.614,-0L0.049,-0L0.049,-0.077Z" style="fill:rgb(51,51,51);fill-rule:nonzero;"/>
        </g>
      </g>
      <g id="_53051344" transform="matrix(1,0,0,1,309.782,300.588)">
        <g transform="matrix(47.5155,0,0,47.5155,0,0)">
          <path d="M0.474,-0L0.384,-0L0.384,-0.646L0.024,-0.646L0.024,-0.727L0.834,-0.727L0.834,-0.646L0.474,-0.646L0.474,-0Z" style="fill:rgb(102,102,102);fill-rule:nonzero;"/>
        </g>
        <g transform="matrix(47.5155,0,0,47.5155,29.6508,0)">
          <path d="M0.451,-0.521C0.548,-0.521 0.615,-0.503 0.653,-0.467C0.691,-0.431 0.71,-0.369 0.71,-0.279C0.71,-0.268 0.71,-0.26 0.71,-0.254C0.71,-0.249 0.709,-0.244 0.709,-0.239L0.147,-0.239L0.147,-0.211C0.147,-0.157 0.16,-0.119 0.187,-0.097C0.213,-0.076 0.259,-0.065 0.324,-0.065L0.458,-0.065C0.515,-0.065 0.557,-0.072 0.584,-0.086C0.611,-0.1 0.625,-0.122 0.625,-0.152L0.625,-0.157L0.71,-0.157L0.71,-0.144C0.71,-0.095 0.69,-0.057 0.651,-0.031C0.611,-0.006 0.553,0.007 0.477,0.007L0.323,0.007C0.231,0.007 0.165,-0.01 0.125,-0.044C0.085,-0.079 0.065,-0.135 0.065,-0.215L0.065,-0.297C0.065,-0.378 0.085,-0.435 0.124,-0.469C0.164,-0.504 0.23,-0.521 0.323,-0.521L0.451,-0.521ZM0.147,-0.313L0.624,-0.313L0.624,-0.325C0.624,-0.371 0.612,-0.403 0.589,-0.42C0.565,-0.437 0.519,-0.446 0.449,-0.446L0.322,-0.446C0.257,-0.446 0.212,-0.436 0.186,-0.416C0.16,-0.396 0.147,-0.361 0.147,-0.313Z" style="fill:rgb(102,102,102);fill-rule:nonzero;"/>
        </g>
        <g transform="matrix(47.5155,0,0,47.5155,66.053,0)">
          <rect x="0.094" y="-0.727" width="0.081" height="0.727" style="fill:rgb(102,102,102);fill-rule:nonzero;"/>
        </g>
        <g transform="matrix(47.5155,0,0,47.5155,78.8367,0)">
          <path d="M0.451,-0.521C0.548,-0.521 0.615,-0.503 0.653,-0.467C0.691,-0.431 0.71,-0.369 0.71,-0.279C0.71,-0.268 0.71,-0.26 0.71,-0.254C0.71,-0.249 0.709,-0.244 0.709,-0.239L0.147,-0.239L0.147,-0.211C0.147,-0.157 0.16,-0.119 0.187,-0.097C0.213,-0.076 0.259,-0.065 0.324,-0.065L0.458,-0.065C0.515,-0.065 0.557,-0.072 0.584,-0.086C0.611,-0.1 0.625,-0.122 0.625,-0.152L0.625,-0.157L0.71,-0.157L0.71,-0.144C0.71,-0.095 0.69,-0.057 0.651,-0.031C0.611,-0.006 0.553,0.007 0.477,0.007L0.323,0.007C0.231,0.007 0.165,-0.01 0.125,-0.044C0.085,-0.079 0.065,-0.135 0.065,-0.215L0.065,-0.297C0.065,-0.378 0.085,-0.435 0.124,-0.469C0.164,-0.504 0.23,-0.521 0.323,-0.521L0.451,-0.521ZM0.147,-0.313L0.624,-0.313L0.624,-0.325C0.624,-0.371 0.612,-0.403 0.589,-0.42C0.565,-0.437 0.519,-0.446 0.449,-0.446L0.322,-0.446C0.257,-0.446 0.212,-0.436 0.186,-0.416C0.16,-0.396 0.147,-0.361 0.147,-0.313Z" style="fill:rgb(102,102,102);fill-rule:nonzero;"/>
        </g>
        <g transform="matrix(47.5155,0,0,47.5155,115.239,0)">
          <path d="M0.295,-0.228C0.202,-0.228 0.141,-0.238 0.114,-0.257C0.086,-0.276 0.072,-0.315 0.072,-0.372C0.072,-0.426 0.088,-0.465 0.122,-0.487C0.155,-0.509 0.213,-0.52 0.295,-0.52L0.441,-0.52C0.522,-0.52 0.581,-0.51 0.618,-0.49C0.655,-0.47 0.674,-0.439 0.674,-0.396L0.674,-0.362L0.596,-0.362L0.596,-0.383C0.596,-0.407 0.584,-0.423 0.56,-0.432C0.536,-0.44 0.487,-0.445 0.412,-0.445L0.332,-0.445C0.252,-0.445 0.202,-0.44 0.182,-0.431C0.163,-0.421 0.153,-0.402 0.153,-0.372C0.153,-0.342 0.163,-0.322 0.182,-0.312C0.202,-0.302 0.252,-0.297 0.332,-0.297L0.472,-0.298C0.535,-0.298 0.578,-0.295 0.602,-0.289C0.626,-0.283 0.645,-0.273 0.659,-0.259C0.672,-0.246 0.681,-0.231 0.686,-0.215C0.691,-0.198 0.694,-0.169 0.694,-0.127C0.694,-0.077 0.677,-0.043 0.644,-0.022C0.611,-0.002 0.551,0.008 0.464,0.008L0.257,0.008C0.189,0.008 0.141,-0.006 0.113,-0.034C0.085,-0.062 0.071,-0.109 0.07,-0.177L0.144,-0.177L0.144,-0.168C0.144,-0.129 0.152,-0.102 0.167,-0.089C0.182,-0.076 0.218,-0.069 0.275,-0.069L0.505,-0.069C0.55,-0.069 0.579,-0.074 0.591,-0.084C0.604,-0.094 0.61,-0.117 0.61,-0.153C0.61,-0.182 0.602,-0.202 0.588,-0.212C0.573,-0.223 0.546,-0.228 0.506,-0.228L0.295,-0.228Z" style="fill:rgb(102,102,102);fill-rule:nonzero;"/>
        </g>
        <g transform="matrix(47.5155,0,0,47.5155,152.407,0)">
          <path d="M0.123,-0L0.123,-0.441L0.015,-0.441L0.015,-0.514L0.123,-0.514L0.123,-0.551C0.123,-0.612 0.138,-0.657 0.168,-0.685C0.198,-0.713 0.246,-0.727 0.311,-0.727L0.442,-0.727L0.442,-0.653L0.314,-0.653C0.274,-0.653 0.246,-0.646 0.229,-0.633C0.212,-0.619 0.204,-0.597 0.204,-0.566L0.204,-0.514L0.442,-0.514L0.442,-0.441L0.204,-0.441L0.204,-0L0.123,-0Z" style="fill:rgb(102,102,102);fill-rule:nonzero;"/>
        </g>
        <g transform="matrix(47.5155,0,0,47.5155,172.8,0)">
          <path d="M0.311,0.007C0.222,0.007 0.159,-0.01 0.122,-0.045C0.084,-0.08 0.065,-0.138 0.065,-0.22L0.065,-0.301C0.065,-0.38 0.084,-0.436 0.122,-0.47C0.161,-0.504 0.223,-0.521 0.311,-0.521L0.488,-0.521C0.575,-0.521 0.638,-0.504 0.677,-0.47C0.715,-0.436 0.734,-0.38 0.734,-0.301L0.734,-0.22C0.734,-0.138 0.715,-0.08 0.677,-0.045C0.639,-0.01 0.576,0.007 0.488,0.007L0.311,0.007ZM0.332,-0.069L0.466,-0.069C0.541,-0.069 0.59,-0.08 0.615,-0.102C0.64,-0.123 0.652,-0.166 0.652,-0.229L0.652,-0.29C0.652,-0.351 0.639,-0.392 0.615,-0.414C0.59,-0.435 0.54,-0.446 0.466,-0.446L0.332,-0.446C0.258,-0.446 0.208,-0.435 0.184,-0.414C0.159,-0.392 0.147,-0.351 0.147,-0.29L0.147,-0.229C0.147,-0.166 0.159,-0.123 0.184,-0.102C0.208,-0.08 0.257,-0.069 0.332,-0.069Z" style="fill:rgb(102,102,102);fill-rule:nonzero;"/>
        </g>
        <g transform="matrix(47.5155,0,0,47.5155,210.757,0)">
          <path d="M0.08,-0L0.08,-0.509L0.159,-0.509L0.159,-0.433C0.176,-0.465 0.199,-0.488 0.23,-0.501C0.261,-0.514 0.308,-0.521 0.373,-0.521C0.46,-0.521 0.521,-0.508 0.556,-0.482C0.591,-0.456 0.609,-0.412 0.609,-0.35L0.609,-0.282L0.533,-0.282L0.533,-0.33C0.533,-0.376 0.521,-0.407 0.497,-0.422C0.473,-0.437 0.425,-0.445 0.353,-0.445C0.287,-0.445 0.238,-0.435 0.208,-0.415C0.178,-0.395 0.163,-0.363 0.163,-0.319L0.163,-0L0.08,-0Z" style="fill:rgb(102,102,102);fill-rule:nonzero;"/>
        </g>
        <g transform="matrix(47.5155,0,0,47.5155,241.22,0)">
          <path d="M0.311,0.007C0.222,0.007 0.159,-0.01 0.122,-0.045C0.084,-0.08 0.065,-0.138 0.065,-0.22L0.065,-0.301C0.065,-0.38 0.084,-0.436 0.122,-0.47C0.161,-0.504 0.223,-0.521 0.311,-0.521L0.488,-0.521C0.575,-0.521 0.638,-0.504 0.677,-0.47C0.715,-0.436 0.734,-0.38 0.734,-0.301L0.734,-0.22C0.734,-0.138 0.715,-0.08 0.677,-0.045C0.639,-0.01 0.576,0.007 0.488,0.007L0.311,0.007ZM0.332,-0.069L0.466,-0.069C0.541,-0.069 0.59,-0.08 0.615,-0.102C0.64,-0.123 0.652,-0.166 0.652,-0.229L0.652,-0.29C0.652,-0.351 0.639,-0.392 0.615,-0.414C0.59,-0.435 0.54,-0.446 0.466,-0.446L0.332,-0.446C0.258,-0.446 0.208,-0.435 0.184,-0.414C0.159,-0.392 0.147,-0.351 0.147,-0.29L0.147,-0.229C0.147,-0.166 0.159,-0.123 0.184,-0.102C0.208,-0.08 0.257,-0.069 0.332,-0.069Z" style="fill:rgb(102,102,102);fill-rule:nonzero;"/>
        </g>
        <g transform="matrix(47.5155,0,0,47.5155,301.751,0)">
          <path d="M0.179,-0.648L0.179,-0.422L0.593,-0.422C0.69,-0.422 0.749,-0.429 0.77,-0.444C0.79,-0.458 0.801,-0.488 0.801,-0.533C0.801,-0.561 0.798,-0.581 0.794,-0.596C0.789,-0.61 0.781,-0.621 0.77,-0.628C0.758,-0.635 0.741,-0.641 0.72,-0.644C0.699,-0.646 0.661,-0.648 0.607,-0.648L0.179,-0.648ZM0.769,-0.388C0.82,-0.385 0.857,-0.372 0.88,-0.35C0.902,-0.328 0.913,-0.293 0.913,-0.246L0.913,-0.169C0.913,-0.104 0.892,-0.06 0.851,-0.036C0.809,-0.012 0.722,-0 0.591,-0L0.089,-0L0.089,-0.727L0.608,-0.727C0.673,-0.727 0.721,-0.725 0.752,-0.72C0.784,-0.715 0.809,-0.707 0.827,-0.695C0.85,-0.681 0.866,-0.663 0.875,-0.641C0.884,-0.618 0.889,-0.586 0.889,-0.543C0.889,-0.493 0.88,-0.456 0.863,-0.435C0.846,-0.413 0.814,-0.398 0.769,-0.388ZM0.655,-0.337L0.179,-0.337L0.179,-0.083L0.655,-0.083C0.725,-0.083 0.772,-0.091 0.793,-0.106C0.815,-0.122 0.826,-0.154 0.826,-0.202C0.826,-0.259 0.816,-0.295 0.794,-0.312C0.773,-0.329 0.727,-0.337 0.655,-0.337Z" style="fill:rgb(102,102,102);fill-rule:nonzero;"/>
        </g>
        <g transform="matrix(47.5155,0,0,47.5155,347.596,0)">
          <path d="M0.08,-0L0.08,-0.509L0.159,-0.509L0.159,-0.433C0.176,-0.465 0.199,-0.488 0.23,-0.501C0.261,-0.514 0.308,-0.521 0.373,-0.521C0.46,-0.521 0.521,-0.508 0.556,-0.482C0.591,-0.456 0.609,-0.412 0.609,-0.35L0.609,-0.282L0.533,-0.282L0.533,-0.33C0.533,-0.376 0.521,-0.407 0.497,-0.422C0.473,-0.437 0.425,-0.445 0.353,-0.445C0.287,-0.445 0.238,-0.435 0.208,-0.415C0.178,-0.395 0.163,-0.363 0.163,-0.319L0.163,-0L0.08,-0Z" style="fill:rgb(102,102,102);fill-rule:nonzero;"/>
        </g>
        <g transform="matrix(47.5155,0,0,47.5155,378.059,0)">
          <path d="M0.601,-0.136L0.601,-0.181C0.601,-0.206 0.589,-0.224 0.566,-0.234C0.542,-0.244 0.498,-0.249 0.432,-0.249L0.309,-0.249C0.237,-0.249 0.191,-0.243 0.17,-0.232C0.15,-0.22 0.139,-0.198 0.139,-0.164C0.139,-0.125 0.149,-0.099 0.168,-0.087C0.188,-0.075 0.235,-0.069 0.309,-0.069L0.432,-0.069C0.499,-0.069 0.544,-0.074 0.567,-0.084C0.59,-0.094 0.601,-0.111 0.601,-0.136ZM0.453,-0.521C0.533,-0.521 0.591,-0.506 0.628,-0.475C0.665,-0.445 0.684,-0.397 0.684,-0.332L0.684,-0L0.606,-0L0.606,-0.068C0.593,-0.041 0.573,-0.022 0.546,-0.01C0.519,0.001 0.479,0.007 0.425,0.007L0.288,0.007C0.2,0.007 0.139,-0.006 0.103,-0.03C0.068,-0.055 0.05,-0.098 0.05,-0.16C0.05,-0.218 0.067,-0.259 0.103,-0.283C0.138,-0.307 0.199,-0.319 0.286,-0.319L0.43,-0.319C0.473,-0.319 0.509,-0.314 0.537,-0.304C0.565,-0.294 0.588,-0.279 0.606,-0.258L0.606,-0.328C0.606,-0.372 0.594,-0.402 0.571,-0.419C0.548,-0.435 0.504,-0.444 0.44,-0.444L0.318,-0.444C0.255,-0.444 0.215,-0.439 0.197,-0.43C0.18,-0.42 0.171,-0.402 0.171,-0.374L0.171,-0.359L0.085,-0.359L0.085,-0.373C0.085,-0.425 0.102,-0.463 0.137,-0.486C0.171,-0.509 0.227,-0.521 0.305,-0.521L0.453,-0.521Z" style="fill:rgb(102,102,102);fill-rule:nonzero;"/>
        </g>
        <g transform="matrix(47.5155,0,0,47.5155,414.02,0)">
          <path d="M0.279,-0L0,-0.514L0.091,-0.514L0.331,-0.077L0.573,-0.514L0.665,-0.514L0.38,-0L0.279,-0Z" style="fill:rgb(102,102,102);fill-rule:nonzero;"/>
        </g>
        <g transform="matrix(47.5155,0,0,47.5155,445.666,0)">
          <path d="M0.311,0.007C0.222,0.007 0.159,-0.01 0.122,-0.045C0.084,-0.08 0.065,-0.138 0.065,-0.22L0.065,-0.301C0.065,-0.38 0.084,-0.436 0.122,-0.47C0.161,-0.504 0.223,-0.521 0.311,-0.521L0.488,-0.521C0.575,-0.521 0.638,-0.504 0.677,-0.47C0.715,-0.436 0.734,-0.38 0.734,-0.301L0.734,-0.22C0.734,-0.138 0.715,-0.08 0.677,-0.045C0.639,-0.01 0.576,0.007 0.488,0.007L0.311,0.007ZM0.332,-0.069L0.466,-0.069C0.541,-0.069 0.59,-0.08 0.615,-0.102C0.64,-0.123 0.652,-0.166 0.652,-0.229L0.652,-0.29C0.652,-0.351 0.639,-0.392 0.615,-0.414C0.59,-0.435 0.54,-0.446 0.466,-0.446L0.332,-0.446C0.258,-0.446 0.208,-0.435 0.184,-0.414C0.159,-0.392 0.147,-0.351 0.147,-0.29L0.147,-0.229C0.147,-0.166 0.159,-0.123 0.184,-0.102C0.208,-0.08 0.257,-0.069 0.332,-0.069Z" style="fill:rgb(102,102,102);fill-rule:nonzero;"/>
        </g>
      </g>
    </g>
  </g>
</svg>