<?xml version="1.0" encoding="UTF-8" standalone="no"?>
<!-- Created with Inkscape (http://www.inkscape.org/) -->

<svg
   xmlns:dc="http://purl.org/dc/elements/1.1/"
   xmlns:cc="http://creativecommons.org/ns#"
   xmlns:rdf="http://www.w3.org/1999/02/22-rdf-syntax-ns#"
   xmlns:svg="http://www.w3.org/2000/svg"
   xmlns="http://www.w3.org/2000/svg"
   xmlns:sodipodi="http://sodipodi.sourceforge.net/DTD/sodipodi-0.dtd"
   xmlns:inkscape="http://www.inkscape.org/namespaces/inkscape"
   width="210mm"
   height="297mm"
   id="svg2"
   version="1.1"
   inkscape:version="0.48.3.1 r9886"
   sodipodi:docname="rhinogame.svg">
  <defs
     id="defs4" />
  <sodipodi:namedview
     id="base"
     pagecolor="#ffffff"
     bordercolor="#666666"
     borderopacity="1.0"
     inkscape:pageopacity="0.0"
     inkscape:pageshadow="2"
     inkscape:zoom="3.9606136"
     inkscape:cx="263.7212"
     inkscape:cy="619.6554"
     inkscape:document-units="px"
     inkscape:current-layer="layer1"
     showgrid="false"
     showguides="true"
     inkscape:guide-bbox="true"
     inkscape:window-width="1280"
     inkscape:window-height="723"
     inkscape:window-x="0"
     inkscape:window-y="24"
     inkscape:window-maximized="1">
    <sodipodi:guide
       orientation="1,0"
       position="149.47179,618.08604"
       id="guide3001" />
    <sodipodi:guide
       orientation="0,1"
       position="403.97781,620.10593"
       id="guide3003" />
    <sodipodi:guide
       orientation="0,1"
       position="318.86289,642.01061"
       id="guide3005" />
  </sodipodi:namedview>
  <metadata
     id="metadata7">
    <rdf:RDF>
      <cc:Work
         rdf:about="">
        <dc:format>image/svg+xml</dc:format>
        <dc:type
           rdf:resource="http://purl.org/dc/dcmitype/StillImage" />
        <dc:title></dc:title>
      </cc:Work>
    </rdf:RDF>
  </metadata>
  <g
     inkscape:label="Capa 1"
     inkscape:groupmode="layer"
     id="layer1">
    <rect
       style="fill:#280b0b"
       id="rect3061"
       width="262.58557"
       height="58.071808"
       x="135.83754"
       y="390.34357"
       inkscape:export-filename="/home/david/proy/apps/juegos/rhinogame.png"
       inkscape:export-xdpi="90"
       inkscape:export-ydpi="90" />
    <text
       xml:space="preserve"
       style="font-size:40px;font-style:normal;font-weight:normal;line-height:125%;letter-spacing:0px;word-spacing:0px;fill:#000000;fill-opacity:1;stroke:none;font-family:Sans"
       x="149.47179"
       y="432.25626"
       id="text2985"
       sodipodi:linespacing="125%"
       inkscape:export-filename="/home/david/proy/apps/juegos/rhinogame.png"
       inkscape:export-xdpi="90"
       inkscape:export-ydpi="90"><tspan
         sodipodi:role="line"
         id="tspan2987"
         x="149.47179"
         y="432.25626">rhino</tspan></text>
    <text
       xml:space="preserve"
       style="font-size:40px;font-style:normal;font-weight:normal;line-height:125%;letter-spacing:0px;word-spacing:0px;fill:#000000;fill-opacity:1;stroke:none;font-family:Sans"
       x="252.35307"
       y="432.25626"
       id="text2989"
       sodipodi:linespacing="125%"
       inkscape:export-filename="/home/david/proy/apps/juegos/rhinogame.png"
       inkscape:export-xdpi="90"
       inkscape:export-ydpi="90"><tspan
         sodipodi:role="line"
         id="tspan2991"
         x="252.35307"
         y="432.25626">game</tspan></text>
    <text
       xml:space="preserve"
       style="font-size:13.82770061px;font-style:normal;font-weight:normal;line-height:125%;letter-spacing:0px;word-spacing:0px;fill:#000000;fill-opacity:1;stroke:none;font-family:Sans"
       x="376.51578"
       y="397.4342"
       id="text2993"
       sodipodi:linespacing="125%"
       transform="scale(0.96852123,1.0325019)"
       inkscape:export-filename="/home/david/proy/apps/juegos/rhinogame.png"
       inkscape:export-xdpi="90"
       inkscape:export-ydpi="90"><tspan
         sodipodi:role="line"
         x="376.51578"
         y="397.4342"
         id="tspan2997">80</tspan></text>
    <path
       style="fill:#ffff00"
       d="m 169.2358,417.16451 0,-15.17544 1.60682,0 1.60681,0 0,6.0826 0,6.0826 1.15741,-1.31822 c 3.13539,-3.57101 9.45459,-3.51501 11.83446,0.10487 1.37495,2.09135 1.62977,3.95521 1.63924,11.98985 l 0.009,7.40919 -1.57712,0 -1.57711,0 -0.12034,-7.94479 c -0.12919,-8.5293 -0.32224,-9.49324 -2.15888,-10.77967 -1.26698,-0.88743 -4.89441,-0.74691 -6.35347,0.24612 -2.61897,1.78246 -2.66233,1.94835 -2.78298,10.64796 l -0.1086,7.83038 -1.58748,0 -1.58749,0 0,-15.17545 z"
       id="path3007"
       inkscape:connector-curvature="0"
       inkscape:export-filename="/home/david/proy/apps/juegos/rhinogame.png"
       inkscape:export-xdpi="90"
       inkscape:export-ydpi="90" />
    <path
       style="fill:#ffff00"
       d="m 153.16768,421.44935 0,-10.89062 1.60682,0 1.60681,0 0.002,1.87461 0.002,1.87462 1.24428,-1.35479 c 1.61758,-1.76124 3.80165,-2.73379 6.16148,-2.74367 l 1.87461,-0.008 0,1.51755 0,1.51754 -2.65184,0 c -3.19499,0 -4.236,0.60259 -5.54026,3.20702 -0.81655,1.63052 -0.8821,2.19311 -1.02752,8.81891 l -0.15533,7.07728 -1.56124,0 -1.56124,0 0,-10.89061 z"
       id="path3009"
       inkscape:connector-curvature="0"
       inkscape:export-filename="/home/david/proy/apps/juegos/rhinogame.png"
       inkscape:export-xdpi="90"
       inkscape:export-ydpi="90" />
    <path
       style="fill:#ffff00"
       d="m 194.58772,421.44935 0,-10.89062 1.60682,0 1.60681,0 0,10.89062 0,10.89061 -1.60681,0 -1.60682,0 0,-10.89061 z"
       id="path3011"
       inkscape:connector-curvature="0"
       inkscape:export-filename="/home/david/proy/apps/juegos/rhinogame.png"
       inkscape:export-xdpi="90"
       inkscape:export-ydpi="90" />
    <path
       style="fill:#ffff00"
       d="m 194.58772,404.13148 0,-2.14241 1.60682,0 1.60681,0 0,2.14241 0,2.14242 -1.60681,0 -1.60682,0 0,-2.14242 z"
       id="path3013"
       inkscape:connector-curvature="0"
       inkscape:export-filename="/home/david/proy/apps/juegos/rhinogame.png"
       inkscape:export-xdpi="90"
       inkscape:export-ydpi="90" />
    <path
       style="fill:#ffff00"
       d="m 205.65687,421.44935 0,-10.89062 1.60681,0 1.60682,0 0,1.8667 0,1.86671 1.07077,-1.29904 c 2.17956,-2.64418 6.30208,-3.56258 9.49084,-2.11432 3.43625,1.56067 4.07823,3.74071 4.07823,13.849 l 0,7.61218 -1.60681,0 -1.60682,0 -0.002,-7.23065 c -0.002,-7.92824 -0.25856,-9.51003 -1.78955,-11.04101 -0.89924,-0.89925 -1.26197,-1.01008 -3.30569,-1.01008 -2.82911,0 -4.35408,0.88394 -5.52558,3.20289 -0.7545,1.49353 -0.8034,2.03127 -0.8034,8.83459 l 0,7.24426 -1.60682,0 -1.60681,0 0,-10.89061 z"
       id="path3015"
       inkscape:connector-curvature="0"
       inkscape:export-filename="/home/david/proy/apps/juegos/rhinogame.png"
       inkscape:export-xdpi="90"
       inkscape:export-ydpi="90" />
    <path
       style="fill:#0000ff"
       d="m 235.81595,432.12881 c -2.15486,-0.76511 -3.92827,-2.41692 -5.05226,-4.70584 -0.91659,-1.86656 -1.00464,-2.39009 -1.00464,-5.97362 0,-3.3456 0.12192,-4.19239 0.82255,-5.71311 0.99441,-2.15837 2.26894,-3.55692 4.17642,-4.58278 2.07509,-1.11601 7.22074,-1.10661 9.32815,0.017 3.07917,1.64177 4.76472,4.72358 5.04556,9.22517 0.46666,7.48002 -3.46692,12.36409 -9.88468,12.27316 -1.09425,-0.0155 -2.63825,-0.25852 -3.4311,-0.54003 z m 7.59299,-3.79886 c 1.69528,-1.638 2.35585,-3.99119 2.16806,-7.72344 -0.0929,-1.84709 -0.38296,-3.51773 -0.72278,-4.16356 -1.84906,-3.51412 -5.5574,-4.61859 -8.82839,-2.62938 -3.82099,2.32368 -4.00071,12.37406 -0.26878,15.03142 2.2646,1.61254 5.68842,1.38209 7.65189,-0.51504 l 0,0 z"
       id="path3017"
       inkscape:connector-curvature="0"
       inkscape:export-filename="/home/david/proy/apps/juegos/rhinogame.png"
       inkscape:export-xdpi="90"
       inkscape:export-ydpi="90" />
    <path
       style="fill:#0000ff"
       d=""
       id="path3019"
       inkscape:connector-curvature="0" />
    <path
       style="fill:#0000ff"
       d="m 261.35968,440.33935 c -0.49097,-0.0884 -1.57556,-0.33846 -2.41021,-0.55575 -1.49528,-0.38927 -1.51755,-0.4181 -1.51755,-1.96464 l 0,-1.56958 1.16048,0.60988 c 0.73125,0.3843 2.29194,0.66683 4.21956,0.76386 2.59092,0.13042 3.28215,0.0402 4.51665,-0.5896 2.13656,-1.09 3.03661,-2.78164 3.23319,-6.07681 l 0.16245,-2.72305 -1.25056,1.3407 c -1.61853,1.73518 -3.28876,2.40853 -5.97435,2.40853 -2.59131,0 -4.36937,-0.7986 -6.05663,-2.72028 -2.17475,-2.47691 -3.0487,-6.17284 -2.46264,-10.41451 0.73816,-5.34253 3.99454,-8.64644 8.52203,-8.64644 2.28968,0 4.10032,0.75231 5.80238,2.41085 l 1.33901,1.30478 0,-1.67928 0,-1.67928 1.62893,0 1.62893,0 -0.11139,11.69402 c -0.1092,11.46519 -0.1279,11.72725 -0.95516,13.39233 -0.92379,1.85935 -2.44528,3.31977 -4.24375,4.0734 -1.21738,0.51014 -5.70565,0.89549 -7.23137,0.62087 z m 5.49898,-11.35366 c 1.54918,-0.64729 2.90868,-2.46353 3.44694,-4.60498 0.61058,-2.42919 0.27471,-6.50599 -0.69128,-8.39068 -2.5089,-4.895 -9.69867,-3.93015 -11.06209,1.4845 -0.51305,2.0375 -0.51857,5.33408 -0.012,7.18844 1.06889,3.91312 4.73688,5.8192 8.31847,4.32272 z"
       id="path3021"
       inkscape:connector-curvature="0"
       inkscape:export-filename="/home/david/proy/apps/juegos/rhinogame.png"
       inkscape:export-xdpi="90"
       inkscape:export-ydpi="90" />
    <path
       style="fill:#0000ff"
       d="m 284.66074,432.31947 c -1.65201,-0.50753 -3.56047,-2.56033 -4.04167,-4.34737 -0.91198,-3.38684 0.50283,-6.71017 3.48022,-8.17488 1.4907,-0.73334 2.34952,-0.86261 6.45081,-0.97097 5.20736,-0.13757 5.21945,-0.14436 4.35138,-2.4419 -1.08285,-2.86601 -4.16823,-4.08377 -8.45532,-3.3372 -1.29165,0.22493 -2.81444,0.64993 -3.38398,0.94445 l -1.03552,0.53549 0.11079,-1.50395 c 0.10288,-1.39662 0.21271,-1.54051 1.53907,-2.01628 0.78555,-0.28178 2.81015,-0.59914 4.4991,-0.70524 3.71472,-0.23336 6.07393,0.4189 7.73941,2.13973 2.17287,2.2451 2.37103,3.18819 2.51173,11.95382 l 0.12753,7.94479 -1.63651,0 -1.63651,0 -0.002,-1.87461 -0.002,-1.87462 -1.19748,1.3037 c -0.65862,0.71703 -1.74116,1.58484 -2.40567,1.92847 -1.41524,0.73185 -5.34298,1.00993 -7.01396,0.49657 l 10e-6,0 z m 7.22383,-3.14957 c 1.57056,-0.90389 2.97893,-3.43109 3.25787,-5.84594 l 0.23715,-2.05315 -3.70912,0.002 c -2.04002,0.001 -4.28344,0.16153 -4.98538,0.35653 -1.7849,0.49583 -2.8788,1.78669 -3.08146,3.63628 -0.21344,1.948 0.9504,3.83459 2.76327,4.47931 1.49943,0.53324 4.05471,0.26694 5.51767,-0.57502 l 0,-1e-5 z"
       id="path3023"
       inkscape:connector-curvature="0"
       inkscape:export-filename="/home/david/proy/apps/juegos/rhinogame.png"
       inkscape:export-xdpi="90"
       inkscape:export-ydpi="90" />
    <path
       style="fill:#0000ff"
       d="m 305.99335,421.44935 0,-10.89062 1.60681,0 1.60681,0 0,1.86308 0,1.86308 1.64637,-1.66991 c 1.96245,-1.9905 3.43215,-2.54505 6.21208,-2.34397 2.41491,0.17468 4.32704,1.39471 5.26341,3.35829 0.31848,0.66785 0.66979,1.20807 0.78071,1.20051 0.11092,-0.008 0.52303,-0.52294 0.91581,-1.14527 0.39277,-0.62233 1.41087,-1.6204 2.26244,-2.21793 1.39852,-0.98132 1.81303,-1.08641 4.28483,-1.08641 3.43066,0 4.71001,0.78176 6.0827,3.7169 0.90597,1.93718 0.93729,2.23642 1.0593,10.11953 l 0.12572,8.12333 -1.5981,0 -1.59811,0 -0.15268,-7.94479 c -0.16347,-8.50628 -0.36782,-9.52972 -2.15238,-10.77967 -1.24774,-0.87395 -4.54758,-0.73814 -6.00993,0.24734 -2.45189,1.65232 -2.64754,2.41993 -2.77553,10.8894 l -0.11467,7.58772 -1.58141,0 -1.58141,0 -0.009,-7.23065 c -0.01,-8.30727 -0.23102,-9.6959 -1.7635,-11.06915 -0.89132,-0.79871 -1.43449,-0.98194 -2.91082,-0.98194 -2.52183,0 -4.07407,0.83383 -5.23801,2.81375 -0.95712,1.62811 -0.9714,1.7462 -1.09511,9.0588 l -0.12535,7.40919 -1.57073,0 -1.57073,0 0,-10.89061 z"
       id="path3025"
       inkscape:connector-curvature="0"
       inkscape:export-filename="/home/david/proy/apps/juegos/rhinogame.png"
       inkscape:export-xdpi="90"
       inkscape:export-ydpi="90" />
    <path
       style="fill:#ffff00"
       d="m 350.67989,432.03487 c -2.35081,-0.83775 -3.46584,-1.64407 -4.95286,-3.5816 -1.43142,-1.86507 -1.96162,-3.7722 -1.96278,-7.06014 -0.001,-3.29613 0.8201,-5.71756 2.64069,-7.78586 1.97871,-2.24794 3.81653,-3.1233 6.99284,-3.3307 5.88663,-0.38439 9.60704,3.00582 10.00791,9.11963 l 0.16973,2.58875 -8.25955,0 c -9.3539,0 -8.72877,-0.24433 -7.7443,3.02682 0.55656,1.84932 1.98565,3.60794 3.41251,4.19939 2.64237,1.0953 7.21688,0.90406 10.22721,-0.42755 l 1.55608,-0.68833 0,1.53968 0,1.53968 -2.23169,0.63923 c -3.35412,0.96073 -7.51804,1.0541 -9.85579,0.221 z m 9.58799,-13.50788 c 0,-1.57979 -1.36708,-3.94408 -2.79262,-4.82966 -1.00655,-0.62529 -1.81455,-0.81004 -3.45609,-0.79023 -3.37511,0.0407 -5.54763,1.58535 -6.43564,4.5756 -0.28997,0.97642 -0.52721,1.82649 -0.52721,1.88904 0,0.0625 2.9726,0.11372 6.60578,0.11372 l 6.60578,0 0,-0.95847 z"
       id="path3027"
       inkscape:connector-curvature="0"
       inkscape:export-filename="/home/david/proy/apps/juegos/rhinogame.png"
       inkscape:export-xdpi="90"
       inkscape:export-ydpi="90" />
    <path
       style="fill:#ffccaa"
       d="m 234.97396,431.39905 c -2.05288,-1.02299 -3.55721,-2.78743 -4.5152,-5.29591 -0.93008,-2.43537 -0.62535,-8.38505 0.54705,-10.68073 1.68921,-3.30767 4.37468,-4.86368 8.39411,-4.86368 4.12573,0 6.90173,1.67257 8.41932,5.07271 0.71805,1.6088 0.84518,2.47478 0.85405,5.81791 0.01,3.58197 -0.0768,4.10537 -0.98032,5.94525 -1.63895,3.33741 -4.3669,4.94536 -8.39001,4.94536 -1.92119,0 -2.84283,-0.20032 -4.329,-0.94091 z m 7.31468,-2.15239 c 2.32992,-1.06547 3.36684,-3.52726 3.34432,-7.93987 -0.0237,-4.64992 -0.90162,-6.53698 -3.70725,-7.96888 -1.72125,-0.87847 -4.43117,-0.7266 -5.85528,0.32815 -2.48455,1.84015 -3.67032,5.96218 -2.91436,10.13105 0.69081,3.80958 2.00217,5.49577 4.66956,6.00429 1.74375,0.33243 2.81387,0.19942 4.46301,-0.55474 z"
       id="path3029"
       inkscape:connector-curvature="0"
       inkscape:export-filename="/home/david/proy/apps/juegos/rhinogame.png"
       inkscape:export-xdpi="90"
       inkscape:export-ydpi="90" />
    <path
       style="fill:#ffccaa"
       d="m 205.65687,421.44935 0,-10.89062 1.60681,0 1.60682,0 0,2.04524 0,2.04524 1.07077,-1.29904 c 2.91059,-3.53105 9.12141,-3.77397 11.72916,-0.45875 1.07948,1.37233 1.42508,3.83028 1.69281,12.03935 l 0.24165,7.40919 -1.65409,0 -1.65409,0 0,-7.44517 c 0,-7.97814 -0.19683,-9.20621 -1.74466,-10.88505 -0.8902,-0.96554 -1.05719,-1.00676 -3.61138,-0.89148 -3.11961,0.14081 -4.1844,0.74296 -5.33001,3.01416 -0.67754,1.34322 -0.74016,2.09099 -0.74016,8.83746 l 0,7.37008 -1.60682,0 -1.60681,0 0,-10.89061 z"
       id="path3031"
       inkscape:connector-curvature="0"
       inkscape:export-filename="/home/david/proy/apps/juegos/rhinogame.png"
       inkscape:export-xdpi="90"
       inkscape:export-ydpi="90" />
    <path
       style="fill:#f4e3d7"
       d="m 194.58772,421.44935 0,-10.89062 1.60682,0 1.60681,0 0,10.89062 0,10.89061 -1.60681,0 -1.60682,0 0,-10.89061 z"
       id="path3033"
       inkscape:connector-curvature="0"
       inkscape:export-filename="/home/david/proy/apps/juegos/rhinogame.png"
       inkscape:export-xdpi="90"
       inkscape:export-ydpi="90" />
    <path
       style="fill:#f4e3d7"
       d="m 235.47216,431.30448 c -1.76709,-0.81993 -3.46376,-2.47934 -4.33126,-4.23613 -0.92856,-1.88045 -1.12881,-7.97616 -0.34004,-10.35094 1.30878,-3.94035 4.06751,-5.80161 8.59906,-5.80161 6.43995,0 9.32017,3.62701 9.04867,11.39484 -0.1151,3.29336 -0.19505,3.60706 -1.42677,5.59861 -1.79624,2.90431 -3.98036,4.07686 -7.5734,4.0658 -1.71706,-0.005 -3.01376,-0.22397 -3.97626,-0.67057 z m 6.45531,-1.78406 c 2.9445,-1.33732 3.86707,-3.63949 3.6634,-9.14158 -0.10903,-2.94532 -0.27496,-3.80478 -0.9434,-4.88635 -1.57455,-2.54767 -5.951,-3.62857 -8.44666,-2.08617 -3.53602,2.18538 -4.48422,10.01963 -1.74057,14.38101 0.46329,0.73645 0.8805,1.34142 0.92713,1.34438 0.0466,0.003 0.72751,0.23693 1.51307,0.51993 1.92621,0.69395 3.2885,0.65839 5.02703,-0.13122 l 0,0 z"
       id="path3035"
       inkscape:connector-curvature="0"
       inkscape:export-filename="/home/david/proy/apps/juegos/rhinogame.png"
       inkscape:export-xdpi="90"
       inkscape:export-ydpi="90" />
    <path
       style="fill:#f4e3d7"
       d="m 205.65687,421.44935 0,-10.89062 1.60681,0 1.60682,0 0,2.15484 0,2.15484 1.0869,-1.23791 c 1.75611,-2.0001 3.84647,-2.81917 6.77282,-2.65382 5.3336,0.30138 6.07839,2.12536 6.57275,16.09651 l 0.18637,5.26677 -1.59632,0 -1.59631,0 -0.002,-7.40919 c -0.002,-7.92875 -0.22455,-9.45681 -1.59117,-10.93141 -0.77766,-0.83911 -1.13536,-0.94108 -3.29949,-0.94059 -3.04058,7e-4 -4.63334,0.74639 -5.7189,2.67747 -0.7619,1.35531 -0.80322,1.81588 -0.80879,9.016 l -0.006,7.58772 -1.60682,0 -1.60681,0 0,-10.89061 z"
       id="path3037"
       inkscape:connector-curvature="0"
       inkscape:export-filename="/home/david/proy/apps/juegos/rhinogame.png"
       inkscape:export-xdpi="90"
       inkscape:export-ydpi="90" />
    <path
       style="fill:#f4e3d7"
       d="m 194.58772,404.13148 0,-2.14241 1.60682,0 1.60681,0 0,2.14241 0,2.14242 -1.60681,0 -1.60682,0 0,-2.14242 z"
       id="path3039"
       inkscape:connector-curvature="0"
       inkscape:export-filename="/home/david/proy/apps/juegos/rhinogame.png"
       inkscape:export-xdpi="90"
       inkscape:export-ydpi="90" />
    <path
       style="fill:#f4e3d7"
       d="m 169.2358,417.16451 0,-15.17544 1.60682,0 1.60681,0 0,6.14264 0,6.14265 1.33901,-1.30478 c 2.55187,-2.48662 6.41396,-3.20633 9.30132,-1.73332 2.98403,1.52235 3.56075,3.63024 3.74679,13.69451 l 0.13697,7.40919 -1.3704,0 c -1.0583,0 -1.37567,-0.14232 -1.39352,-0.62487 -0.0127,-0.34368 -0.14627,-4.00105 -0.29679,-8.12748 -0.29727,-8.14939 -0.55169,-9.27472 -2.28466,-10.10531 -1.46548,-0.70239 -4.69187,-0.59894 -6.23097,0.19978 -2.60737,1.35311 -2.69197,1.65184 -2.98186,10.52929 -0.14279,4.37253 -0.27386,7.99022 -0.29129,8.03932 -0.0174,0.0491 -0.6744,0.0893 -1.45995,0.0893 l -1.42828,0 0,-15.17545 z"
       id="path3041"
       inkscape:connector-curvature="0"
       inkscape:export-filename="/home/david/proy/apps/juegos/rhinogame.png"
       inkscape:export-xdpi="90"
       inkscape:export-ydpi="90" />
    <path
       style="fill:#e6e6e6"
       d="m 153.16768,421.44935 0,-10.89062 1.60682,0 1.60681,0 0,2.01274 0,2.01275 1.71596,-1.60509 c 1.81563,-1.69831 3.11329,-2.25626 5.87176,-2.5247 l 1.69608,-0.16505 0,1.34661 0,1.34661 -2.76729,0.12827 c -3.25747,0.15099 -4.26034,0.72803 -5.49364,3.16097 -0.7862,1.55096 -1.0819,4.84594 -1.35386,15.08618 -0.024,0.9032 -0.14061,0.98194 -1.45436,0.98194 l -1.42828,0 0,-10.89061 z"
       id="path3043"
       inkscape:connector-curvature="0"
       inkscape:export-filename="/home/david/proy/apps/juegos/rhinogame.png"
       inkscape:export-xdpi="90"
       inkscape:export-ydpi="90" />
    <path
       style="fill:#c8b7b7"
       d="m 169.2358,417.16451 0,-15.17544 1.60682,0 1.60681,0 0,6.32118 0,6.32118 1.33901,-1.28287 c 1.88888,-1.80968 3.51441,-2.53161 5.79661,-2.57438 2.61471,-0.049 4.55081,0.95764 5.65801,2.94179 0.67006,1.20078 0.89359,2.3406 1.14953,5.86175 0.42204,5.80607 0.42519,12.76224 0.006,12.76224 -0.18361,0 -0.74599,-0.15671 -1.24975,-0.34823 -0.89588,-0.34062 -0.91614,-0.42459 -0.92633,-3.8385 -0.0149,-4.99448 -0.60995,-12.46725 -1.05965,-13.30754 -1.10985,-2.07377 -5.40004,-2.60432 -8.27059,-1.02279 -1.3374,0.73684 -1.60837,1.08982 -1.97591,2.57387 -0.23427,0.94596 -0.53878,4.8244 -0.67668,8.61875 l -0.25074,6.89883 -1.06403,0.2128 c -0.58521,0.11705 -1.20462,0.21281 -1.37646,0.21281 -0.17363,0 -0.31244,-6.74181 -0.31244,-15.17545 z"
       id="path3045"
       inkscape:connector-curvature="0"
       inkscape:export-filename="/home/david/proy/apps/juegos/rhinogame.png"
       inkscape:export-xdpi="90"
       inkscape:export-ydpi="90" />
    <path
       style="fill:#c8b7b7"
       d="m 194.58772,421.44935 0,-10.89062 1.60682,0 1.60681,0 0,10.89062 0,10.89061 -1.60681,0 -1.60682,0 0,-10.89061 z"
       id="path3047"
       inkscape:connector-curvature="0"
       inkscape:export-filename="/home/david/proy/apps/juegos/rhinogame.png"
       inkscape:export-xdpi="90"
       inkscape:export-ydpi="90" />
    <path
       style="fill:#c8b7b7"
       d="m 205.65687,421.44935 0,-10.89062 1.60681,0 1.60682,0 0,2.18789 0,2.1879 1.54758,-1.42652 c 1.97257,-1.81824 3.59971,-2.34769 6.68023,-2.17363 2.91989,0.16499 3.94203,0.91037 4.803,3.50252 0.60393,1.81827 1.22489,8.92055 1.24154,14.20018 l 0.0104,3.30289 -1.42828,0 -1.42828,0 -0.0157,-7.58772 c -0.0163,-7.89525 -0.25577,-9.50433 -1.64252,-11.03666 -0.57644,-0.63696 -1.0051,-0.70898 -3.57872,-0.60123 -3.31264,0.13868 -4.50159,0.74253 -5.56388,2.8258 -0.53632,1.05179 -0.62439,2.29386 -0.62487,8.81209 l -5.5e-4,7.58772 -1.60682,0 -1.60681,0 0,-10.89061 z"
       id="path3049"
       inkscape:connector-curvature="0"
       inkscape:export-filename="/home/david/proy/apps/juegos/rhinogame.png"
       inkscape:export-xdpi="90"
       inkscape:export-ydpi="90" />
    <path
       style="fill:#c8b7b7"
       d="m 237.55019,431.58524 c -2.82853,-0.35541 -5.76886,-2.86892 -6.51993,-5.5735 -0.50239,-1.80911 -0.47995,-7.71174 0.0359,-9.43338 0.57378,-1.9151 2.49004,-4.03284 4.30862,-4.76164 1.99361,-0.79894 6.06262,-0.79438 8.07059,0.009 1.9014,0.76079 3.79782,2.95367 4.30859,4.98215 0.56712,2.25222 0.50157,8.15661 -0.10671,9.61243 -0.64066,1.53333 -2.95291,4.09962 -4.12717,4.58063 -1.43864,0.58931 -3.96327,0.83639 -5.96985,0.58426 l 0,0 z m 4.277,-1.87011 c 0.63502,-0.26533 1.66342,-1.06196 2.28534,-1.77028 1.36976,-1.56007 1.67249,-3.204 1.47867,-8.02962 -0.11906,-2.96418 -0.26733,-3.66632 -0.98794,-4.67832 -1.73672,-2.439 -6.2251,-3.34233 -8.60757,-1.73236 -0.65389,0.44188 -1.5984,1.60681 -2.0989,2.58876 -0.79473,1.55918 -0.9109,2.24072 -0.91706,5.3801 -0.006,3.30261 0.0805,3.76613 1.07081,5.70353 0.92757,1.81474 1.27609,2.16853 2.49948,2.53725 1.92779,0.58103 3.88799,0.58137 5.27717,9.3e-4 l 0,10e-6 z"
       id="path3051"
       inkscape:connector-curvature="0"
       inkscape:export-filename="/home/david/proy/apps/juegos/rhinogame.png"
       inkscape:export-xdpi="90"
       inkscape:export-ydpi="90" />
    <path
       style="fill:#c8b7b7"
       d="m 194.58772,404.13148 0,-2.14241 1.60682,0 1.60681,0 0,2.14241 0,2.14242 -1.60681,0 -1.60682,0 0,-2.14242 z"
       id="path3053"
       inkscape:connector-curvature="0"
       inkscape:export-filename="/home/david/proy/apps/juegos/rhinogame.png"
       inkscape:export-xdpi="90"
       inkscape:export-ydpi="90" />
    <path
       style="fill:#c8b7b7"
       d="m 376.11679,410.14233 c -1.24532,-0.67565 -1.80203,-2.18287 -1.81211,-4.90604 -0.0106,-2.85324 0.56227,-4.28868 1.98154,-4.96548 1.91957,-0.91538 3.65658,0.27605 4.19688,2.87866 0.98105,4.72566 -1.42947,8.58623 -4.36631,6.99286 z m 2.9378,-1.60289 c 0.68872,-1.18349 0.73089,-5.28619 0.0671,-6.53319 -0.87326,-1.64066 -2.64813,-1.56927 -3.3683,0.13548 -0.48671,1.15213 -0.54393,4.59207 -0.0988,5.94078 0.37186,1.12675 0.86672,1.46417 2.02648,1.38174 0.69412,-0.0493 0.97348,-0.23744 1.37349,-0.92481 z"
       id="path3055"
       inkscape:connector-curvature="0"
       inkscape:export-filename="/home/david/proy/apps/juegos/rhinogame.png"
       inkscape:export-xdpi="90"
       inkscape:export-ydpi="90" />
    <path
       style="fill:#0000ff"
       d="m 367.43703,410.18936 c -1.1212,-0.5074 -1.61044,-1.33325 -1.61044,-2.71849 0,-1.05753 0.10008,-1.27036 0.91205,-1.93966 0.90222,-0.74368 0.90607,-0.75498 0.35736,-1.04864 -0.30508,-0.16328 -0.71703,-0.68539 -0.91544,-1.16025 -1.12384,-2.68974 2.98365,-4.65937 5.00317,-2.39913 0.9751,1.09132 0.93582,2.11042 -0.12209,3.16833 l -0.82462,0.82463 0.70066,0.40212 c 1.57115,0.90172 1.58735,3.56824 0.0279,4.59004 -0.86011,0.56357 -2.59833,0.70201 -3.52853,0.28105 l 0,0 z m 2.91402,-1.10265 c 0.29735,-0.24302 0.60562,-0.84805 0.68506,-1.34452 0.11508,-0.71921 0.0237,-1.03712 -0.44953,-1.56417 -0.84476,-0.94082 -2.4002,-1.02914 -3.24507,-0.18427 -0.68535,0.68535 -0.68535,2.34448 0,3.02983 0.64205,0.64206 2.25969,0.67598 3.00954,0.0631 l 0,0 z m -0.0591,-5.15686 c 0.69743,-0.6552 0.75938,-1.71485 0.14252,-2.43768 -0.64072,-0.75078 -2.26585,-0.83421 -2.94868,-0.15138 -0.61656,0.61657 -0.51771,2.26724 0.16439,2.745 0.79629,0.55774 1.95489,0.48935 2.64177,-0.15594 z"
       id="path3057"
       inkscape:connector-curvature="0"
       inkscape:export-filename="/home/david/proy/apps/juegos/rhinogame.png"
       inkscape:export-xdpi="90"
       inkscape:export-ydpi="90" />
    <path
       style="fill:#e6e6e6"
       d="m 351.77521,432.16356 c -5.66943,-1.45035 -8.6309,-6.28794 -7.71504,-12.60257 0.40845,-2.81623 1.41621,-4.80695 3.33068,-6.57941 2.03881,-1.88758 3.68103,-2.49549 6.71182,-2.48456 5.6667,0.0204 8.60775,2.98294 9.15474,9.22152 l 0.1913,2.18184 -7.48415,0 c -8.53489,0 -9.20766,0.10166 -8.99891,1.35983 0.23206,1.39861 1.15733,3.54021 1.93894,4.4878 0.41926,0.50828 1.30211,1.18999 1.9619,1.51492 1.07938,0.53155 1.52857,0.58884 4.48193,0.57164 3.17284,-0.0185 4.35452,-0.23521 6.754,-1.23878 0.38933,-0.16283 0.44186,-0.0214 0.44186,1.18946 l 0,1.37426 -2.26191,0.54445 c -2.89262,0.69625 -6.7644,0.90543 -8.50716,0.4596 l 0,0 z m 8.49669,-13.6818 c 0,-2.07383 -1.72234,-4.56518 -3.67035,-5.30913 -0.82819,-0.31628 -1.60884,-0.39723 -2.9814,-0.30915 -2.24474,0.14406 -3.93198,0.88537 -4.89813,2.15206 -0.70178,0.92008 -1.89199,4.05846 -1.67332,4.41227 0.0681,0.11011 3.07111,0.20019 6.67346,0.20019 l 6.54974,0 0,-1.14624 z"
       id="path3059"
       inkscape:connector-curvature="0"
       inkscape:export-filename="/home/david/proy/apps/juegos/rhinogame.png"
       inkscape:export-xdpi="90"
       inkscape:export-ydpi="90" />
    <path
       style="fill:#c8b7b7"
       d="m 376.1486,409.90651 c -1.14844,-0.62411 -1.61123,-1.96554 -1.61123,-4.67022 0,-1.84262 0.11031,-2.62067 0.47589,-3.35656 0.8982,-1.80799 2.96136,-2.25642 4.21366,-0.91583 0.88291,0.94515 1.24105,2.14166 1.24105,4.14615 0,2.08859 -0.40719,3.3641 -1.38663,4.34354 -0.91916,0.91916 -1.81906,1.05813 -2.93274,0.45292 l 0,0 z m 2.6168,-0.8198 c 0.87631,-0.98583 1.24258,-4.42054 0.68534,-6.42692 -0.29046,-1.04582 -1.28684,-1.96825 -2.12606,-1.96825 -0.30424,0 -0.80372,0.26672 -1.10997,0.5927 -1.16017,1.23495 -1.32552,6.23761 -0.2513,7.60326 0.61815,0.78585 2.18171,0.89701 2.80199,0.19921 z"
       id="path3063"
       inkscape:connector-curvature="0"
       inkscape:export-filename="/home/david/proy/apps/juegos/rhinogame.png"
       inkscape:export-xdpi="90"
       inkscape:export-ydpi="90" />
    <path
       style="fill:#c8b7b7"
       d=""
       id="path3065"
       inkscape:connector-curvature="0" />
    <path
       style="fill:#c8b7b7"
       d="m 367.17469,409.79752 c -1.45455,-0.88692 -1.60177,-2.87877 -0.31118,-4.21032 l 0.83492,-0.86143 -0.53786,-0.37674 c -1.33412,-0.93445 -1.21232,-3.06325 0.21756,-3.80267 1.20616,-0.62373 2.6734,-0.46596 3.51761,0.37825 0.97975,0.97975 0.98001,2.0132 7.8e-4,3.10839 l -0.73726,0.82456 0.8635,0.79151 c 0.71911,0.65916 0.8635,0.96803 0.8635,1.84713 0,1.37937 -0.35476,1.99536 -1.40089,2.43246 -1.17911,0.49267 -2.36466,0.4457 -3.31068,-0.13114 l 0,0 z m 3.43082,-0.93423 c 1.19372,-1.51757 0.20871,-3.48928 -1.74315,-3.48928 -1.41764,0 -2.02582,0.64831 -2.02582,2.15947 0,1.46595 0.57923,1.99508 2.18399,1.99508 0.84622,0 1.16788,-0.13501 1.58498,-0.66527 z m -0.23416,-4.88943 c 0.67743,-0.67743 0.66708,-2.0474 -0.0202,-2.66935 -0.61977,-0.56089 -2.24536,-0.63754 -2.85153,-0.13446 -0.54735,0.45425 -0.54281,2.23926 0.007,2.84705 0.58044,0.64138 2.20435,0.61687 2.86446,-0.0432 z"
       id="path3067"
       inkscape:connector-curvature="0"
       inkscape:export-filename="/home/david/proy/apps/juegos/rhinogame.png"
       inkscape:export-xdpi="90"
       inkscape:export-ydpi="90" />
    <path
       style="fill:#c8b7b7"
       d="m 235.85728,430.9583 c -1.64521,-0.63229 -3.6753,-2.557 -4.42263,-4.19306 -0.49399,-1.08147 -0.54988,-1.62722 -0.54988,-5.36983 0,-4.71947 0.22824,-5.57149 2.02533,-7.56066 1.22687,-1.358 2.40626,-1.94978 4.61163,-2.31399 3.92671,-0.64849 7.39092,0.59768 9.11039,3.27725 1.08749,1.6947 1.3516,3.30238 1.2439,7.57184 l -0.0933,3.69655 -0.96834,1.45216 c -1.38512,2.0772 -2.88308,3.31348 -4.45422,3.67615 -2.01617,0.46539 -4.95485,0.35855 -6.50293,-0.23641 z m 6.65739,-1.54728 c 1.32156,-0.83427 2.48823,-2.30907 2.84554,-3.59711 0.34996,-1.26153 0.36899,-6.92593 0.0293,-8.71719 -0.33374,-1.75982 -1.18814,-2.827 -2.95573,-3.6918 -1.18834,-0.58139 -1.78529,-0.70871 -3.34754,-0.71393 -2.35419,-0.008 -3.27569,0.46909 -4.61859,2.39057 -1.15566,1.65355 -1.44321,2.65479 -1.58125,5.50567 -0.1364,2.81714 0.23799,5.14072 1.07655,6.68144 1.32103,2.42717 2.47099,3.0007 5.74868,2.86709 1.38629,-0.0565 1.99302,-0.21338 2.80306,-0.72474 z"
       id="path3069"
       inkscape:connector-curvature="0"
       inkscape:export-filename="/home/david/proy/apps/juegos/rhinogame.png"
       inkscape:export-xdpi="90"
       inkscape:export-ydpi="90" />
    <path
       style="fill:#c8b7b7"
       d="m 205.75039,421.52165 0,-10.73066 1.51492,0 1.51491,0 0,2.15258 0,2.15258 1.60257,-1.3595 c 2.25218,-1.91058 3.33275,-2.27181 6.42439,-2.14764 2.94285,0.1182 3.55292,0.41693 4.43827,2.17323 1.02484,2.033 1.67344,7.60806 1.67379,14.38717 l 2.1e-4,4.1029 -1.26243,0 -1.26244,0 -0.002,-6.12279 c -0.003,-7.44979 -0.27626,-10.23645 -1.15243,-11.73151 -0.76771,-1.31001 -1.1536,-1.42438 -4.34392,-1.28751 -2.93397,0.12587 -4.11421,0.60166 -5.00914,2.0193 -0.94642,1.49923 -1.1068,2.99752 -1.1068,10.33984 l 0,6.78267 -1.51491,0 -1.51492,0 0,-10.73066 z"
       id="path3071"
       inkscape:connector-curvature="0"
       inkscape:export-filename="/home/david/proy/apps/juegos/rhinogame.png"
       inkscape:export-xdpi="90"
       inkscape:export-ydpi="90" />
    <path
       style="fill:#c8b7b7"
       d="m 169.55445,430.91372 c -0.0867,-0.72189 -0.15866,-7.47633 -0.15987,-15.00989 l -0.002,-13.69737 1.51491,0 1.51492,0 0,6.18591 c 0,3.40225 0.09,6.18591 0.19992,6.18591 0.10995,0 0.68568,-0.49496 1.27939,-1.0999 3.281,-3.3431 8.52169,-3.39528 10.90258,-0.10856 0.87742,1.21124 1.17331,2.59289 1.50245,7.01564 0.27515,3.69741 0.34621,11.43888 0.10718,11.67791 -0.30948,0.30948 -1.66572,-0.4042 -1.89021,-0.99467 -0.12896,-0.33917 -0.23446,-2.00679 -0.23446,-3.70584 0,-3.57168 -0.39872,-9.25531 -0.79059,-11.26966 -0.33147,-1.70386 -0.92672,-2.38378 -2.56261,-2.92714 -1.68475,-0.55958 -3.97416,-0.36849 -5.84462,0.48783 -1.19626,0.54767 -1.50292,0.82801 -1.89853,1.7356 -0.51245,1.17564 -0.88245,5.02852 -1.17896,12.27673 -0.10888,2.66152 -0.26788,4.15398 -0.44823,4.20729 -0.15372,0.0454 -0.63363,0.14339 -1.06645,0.21767 -0.78262,0.13431 -0.78783,0.12783 -0.94463,-1.17746 l 0,0 z"
       id="path3073"
       inkscape:connector-curvature="0"
       inkscape:export-filename="/home/david/proy/apps/juegos/rhinogame.png"
       inkscape:export-xdpi="90"
       inkscape:export-ydpi="90" />
    <path
       style="fill:#e6e6e6"
       d="m 153.23327,421.52165 0,-10.73066 1.51492,0 1.51492,0 0,1.89364 c 0,1.04151 0.067,1.89365 0.1489,1.89365 0.0819,0 0.79201,-0.58167 1.57804,-1.2926 1.86052,-1.68278 3.51177,-2.43833 5.79208,-2.65027 l 1.82296,-0.16942 0,1.15235 0,1.15234 -1.70428,0.14558 c -3.10949,0.26562 -4.39895,0.59974 -5.18128,1.34259 -1.79921,1.7084 -2.34639,4.28545 -2.60997,12.29195 -0.0918,2.78866 -0.27915,5.21232 -0.41633,5.3859 -0.13718,0.17359 -0.74678,0.31561 -1.35468,0.31561 l -1.10528,0 0,-10.73066 z"
       id="path3075"
       inkscape:connector-curvature="0"
       inkscape:export-filename="/home/david/proy/apps/juegos/rhinogame.png"
       inkscape:export-xdpi="90"
       inkscape:export-ydpi="90" />
    <path
       style="fill:#e6e6e6"
       d="m 169.55007,431.0599 c -0.0867,-0.63274 -0.15768,-7.38362 -0.15768,-15.00194 l 0,-13.8515 1.5105,0 1.51051,0 0.0675,6.24903 0.0675,6.24903 1.26243,-1.17222 c 2.25554,-2.09436 4.56691,-2.89615 7.14116,-2.47718 2.52293,0.41061 4.33469,2.13944 4.83608,4.61469 0.62489,3.08497 1.08605,16.10693 0.58145,16.41879 -0.10553,0.0652 -0.5533,-0.0334 -0.99504,-0.21913 -0.99185,-0.41704 -1.01703,-0.55594 -1.18903,-6.56053 -0.16128,-5.63052 -0.55398,-9.32712 -1.11144,-10.46226 -0.65326,-1.33022 -2.01241,-1.91024 -4.46712,-1.90637 -1.70048,0.003 -2.25185,0.11609 -3.47586,0.71495 -0.88428,0.43263 -1.59353,0.98006 -1.80858,1.39591 -0.53268,1.0301 -0.8427,3.81154 -1.17146,10.51026 -0.16357,3.33281 -0.3683,6.13008 -0.45497,6.21614 -0.0867,0.0861 -0.56948,0.21865 -1.07294,0.29464 l -0.91538,0.13815 -0.15769,-1.15046 0,0 z"
       id="path3077"
       inkscape:connector-curvature="0"
       inkscape:export-filename="/home/david/proy/apps/juegos/rhinogame.png"
       inkscape:export-xdpi="90"
       inkscape:export-ydpi="90" />
    <path
       style="fill:#e6e6e6"
       d="m 194.641,421.52165 0,-10.73066 1.51492,0 1.51491,0 0,10.73066 0,10.73066 -1.51491,0 -1.51492,0 0,-10.73066 z"
       id="path3079"
       inkscape:connector-curvature="0"
       inkscape:export-filename="/home/david/proy/apps/juegos/rhinogame.png"
       inkscape:export-xdpi="90"
       inkscape:export-ydpi="90" />
    <path
       style="fill:#e6e6e6"
       d="m 194.641,404.22635 0,-2.01989 1.51492,0 1.51491,0 0,2.01989 0,2.01989 -1.51491,0 -1.51492,0 0,-2.01989 z"
       id="path3081"
       inkscape:connector-curvature="0"
       inkscape:export-filename="/home/david/proy/apps/juegos/rhinogame.png"
       inkscape:export-xdpi="90"
       inkscape:export-ydpi="90" />
    <path
       style="fill:#e6e6e6"
       d="m 205.75039,421.52165 0,-10.73066 1.51492,0 1.51491,0 0,2.15258 0,2.15258 1.60257,-1.3595 c 2.25218,-1.91058 3.33275,-2.27181 6.42439,-2.14764 2.94873,0.11844 3.55048,0.41504 4.45216,2.19442 0.93065,1.83655 1.41482,5.647 1.58478,12.47233 l 0.14932,5.99655 -1.26798,0 -1.26798,0 -0.12981,-7.51146 c -0.14302,-8.27525 -0.3407,-9.62589 -1.60419,-10.96024 l -0.72751,-0.76832 -2.66519,0.10551 c -3.61346,0.14306 -4.73277,0.667 -5.72008,2.67752 l -0.70423,1.43406 -0.0829,7.51147 -0.0829,7.51146 -1.49516,0 -1.49517,0 0,-10.73066 z"
       id="path3083"
       inkscape:connector-curvature="0"
       inkscape:export-filename="/home/david/proy/apps/juegos/rhinogame.png"
       inkscape:export-xdpi="90"
       inkscape:export-ydpi="90" />
    <path
       style="fill:#e6e6e6"
       d="m 223.2118,416.34568 c 0,-0.34717 0.0573,-0.48919 0.12735,-0.31561 0.07,0.17359 0.07,0.45764 0,0.63122 -0.07,0.17358 -0.12735,0.0316 -0.12735,-0.31561 z"
       id="path3085"
       inkscape:connector-curvature="0"
       inkscape:export-filename="/home/david/proy/apps/juegos/rhinogame.png"
       inkscape:export-xdpi="90"
       inkscape:export-ydpi="90" />
    <path
       style="fill:#e6e6e6"
       d="m 235.85728,430.9583 c -1.64521,-0.63229 -3.6753,-2.557 -4.42263,-4.19306 -0.49399,-1.08147 -0.54988,-1.62722 -0.54988,-5.36983 0,-4.71947 0.22824,-5.57149 2.02533,-7.56066 1.24885,-1.38233 2.4531,-1.97321 4.749,-2.33014 5.06692,-0.78774 9.10732,1.56002 10.02162,5.82327 0.17108,0.79768 0.2515,2.86412 0.19756,5.07585 l -0.091,3.73044 -0.98636,1.43215 c -1.44034,2.09131 -2.95905,3.33484 -4.46805,3.65846 -2.03231,0.43585 -4.96182,0.3153 -6.4756,-0.26648 z m 6.60239,-1.58015 c 1.34751,-0.78969 2.26727,-1.91447 2.79985,-3.42396 0.42069,-1.19239 0.51449,-6.48381 0.1538,-8.67727 -0.35712,-2.17178 -2.00229,-3.72195 -4.6412,-4.37316 -3.1922,-0.78776 -5.54134,0.34385 -7.04311,3.39272 -0.53646,1.08912 -0.58388,1.51346 -0.58388,5.22517 0,3.93691 0.0182,4.07514 0.71323,5.42845 0.39227,0.76377 0.95479,1.64753 1.25004,1.96392 1.3459,1.44226 5.2605,1.68941 7.35127,0.46413 z"
       id="path3087"
       inkscape:connector-curvature="0"
       inkscape:export-filename="/home/david/proy/apps/juegos/rhinogame.png"
       inkscape:export-xdpi="90"
       inkscape:export-ydpi="90" />
    <path
       style="fill:#e6e6e6"
       d=""
       id="path3089"
       inkscape:connector-curvature="0" />
    <path
       style="fill:#e6e6e6"
       d="m 376.1486,409.90651 c -1.14844,-0.62411 -1.61123,-1.96554 -1.61123,-4.67022 0,-1.84262 0.11031,-2.62067 0.47589,-3.35656 0.8982,-1.80799 2.96136,-2.25642 4.21366,-0.91583 0.88291,0.94515 1.24105,2.14166 1.24105,4.14615 0,2.08859 -0.40719,3.3641 -1.38663,4.34354 -0.91916,0.91916 -1.81906,1.05813 -2.93274,0.45292 l 0,0 z m 2.62728,-0.82353 c 0.83666,-0.9245 1.21141,-4.4913 0.67486,-6.42319 -0.27711,-0.99777 -1.27792,-1.96825 -2.02975,-1.96825 -0.25127,0 -0.75474,0.25624 -1.11884,0.56943 -1.30315,1.12092 -1.44655,6.44029 -0.21044,7.80618 0.5494,0.60708 2.14061,0.61646 2.68417,0.0158 l 0,0 z"
       id="path3091"
       inkscape:connector-curvature="0"
       inkscape:export-filename="/home/david/proy/apps/juegos/rhinogame.png"
       inkscape:export-xdpi="90"
       inkscape:export-ydpi="90" />
    <path
       style="fill:#e6e6e6"
       d="m 367.31325,409.65489 c -0.79002,-0.42937 -1.34962,-1.65184 -1.13946,-2.4892 0.0836,-0.3329 0.52249,-1.06776 0.97542,-1.63303 0.7252,-0.90506 0.95163,-1.02932 1.89658,-1.04079 0.60622,-0.007 1.07307,0.10526 1.07307,0.25887 0,0.14955 0.34086,0.61277 0.75746,1.02937 0.5787,0.5787 0.75746,0.98634 0.75746,1.72733 0,0.53343 -0.0706,1.1538 -0.15684,1.37859 -0.39615,1.03233 -2.84641,1.48479 -4.16369,0.76886 l 0,0 z m 3.26297,-0.64114 c 0.72993,-0.68004 0.75913,-2.30848 0.054,-3.01358 -0.92126,-0.92126 -2.53601,-0.97556 -3.39733,-0.11425 -0.53436,0.53437 -0.53411,2.71138 3.8e-4,3.24587 0.59974,0.59974 2.65019,0.52734 3.34292,-0.11804 l 0,0 z"
       id="path3093"
       inkscape:connector-curvature="0"
       inkscape:export-filename="/home/david/proy/apps/juegos/rhinogame.png"
       inkscape:export-xdpi="90"
       inkscape:export-ydpi="90" />
    <path
       style="fill:#e6e6e6"
       d="m 366.89836,403.91074 c -0.48795,-0.6099 -0.60986,-1.49573 -0.3066,-2.22787 0.16832,-0.40636 0.37747,-0.73884 0.46478,-0.73884 0.0873,0 0.15873,0.73852 0.15873,1.64116 0,0.90264 -0.0145,1.64116 -0.0322,1.64116 -0.0177,0 -0.14583,-0.14203 -0.2847,-0.31561 z"
       id="path3095"
       inkscape:connector-curvature="0"
       inkscape:export-filename="/home/david/proy/apps/juegos/rhinogame.png"
       inkscape:export-xdpi="90"
       inkscape:export-ydpi="90" />
    <path
       style="fill:#0000ff"
       d="m 351.08067,431.76759 c -4.47882,-1.48594 -6.95848,-5.04729 -6.96515,-10.00353 -0.005,-3.68917 1.13789,-6.60093 3.38316,-8.61963 1.64159,-1.47592 2.75606,-2.02374 4.77235,-2.34584 3.22876,-0.5158 6.85388,0.4976 8.41447,2.35226 1.08811,1.29314 1.83845,3.0931 2.2333,5.35735 0.21061,1.20774 0.38293,2.46506 0.38293,2.79404 l 0,0.59814 -7.55814,0 c -4.55346,0 -7.82891,0.10294 -8.23924,0.25895 -0.63782,0.2425 -0.67118,0.33118 -0.52519,1.39631 0.38092,2.77911 2.5382,5.52889 4.84405,6.17449 1.72205,0.48215 6.88522,0.20234 8.80957,-0.47741 0.82339,-0.29086 1.53908,-0.48682 1.59041,-0.43549 0.0513,0.0513 0.11618,0.57967 0.14409,1.17408 l 0.0507,1.08074 -2.01989,0.46398 c -1.11094,0.25519 -3.3265,0.52294 -4.92348,0.59501 -2.44585,0.11036 -3.13854,0.0531 -4.39399,-0.36345 z m 9.18568,-13.3389 c -0.007,-1.60289 -0.68478,-2.99573 -2.0798,-4.27657 -1.33191,-1.22289 -2.20824,-1.45708 -4.81517,-1.28682 -1.93426,0.12633 -3.42159,0.72087 -4.38365,1.75227 -0.64836,0.69511 -1.76902,3.05194 -1.99976,4.20567 l -0.16096,0.80476 6.72245,0 6.72244,0 -0.006,-1.19931 z"
       id="path3097"
       inkscape:connector-curvature="0"
       inkscape:export-filename="/home/david/proy/apps/juegos/rhinogame.png"
       inkscape:export-xdpi="90"
       inkscape:export-ydpi="90" />
  </g>
</svg>
